%TF.GenerationSoftware,KiCad,Pcbnew,(6.0.1)*%
%TF.CreationDate,2022-02-07T09:31:49-05:00*%
%TF.ProjectId,hitsmodule,68697473-6d6f-4647-956c-652e6b696361,rev?*%
%TF.SameCoordinates,Original*%
%TF.FileFunction,Copper,L1,Top*%
%TF.FilePolarity,Positive*%
%FSLAX46Y46*%
G04 Gerber Fmt 4.6, Leading zero omitted, Abs format (unit mm)*
G04 Created by KiCad (PCBNEW (6.0.1)) date 2022-02-07 09:31:49*
%MOMM*%
%LPD*%
G01*
G04 APERTURE LIST*
G04 Aperture macros list*
%AMRoundRect*
0 Rectangle with rounded corners*
0 $1 Rounding radius*
0 $2 $3 $4 $5 $6 $7 $8 $9 X,Y pos of 4 corners*
0 Add a 4 corners polygon primitive as box body*
4,1,4,$2,$3,$4,$5,$6,$7,$8,$9,$2,$3,0*
0 Add four circle primitives for the rounded corners*
1,1,$1+$1,$2,$3*
1,1,$1+$1,$4,$5*
1,1,$1+$1,$6,$7*
1,1,$1+$1,$8,$9*
0 Add four rect primitives between the rounded corners*
20,1,$1+$1,$2,$3,$4,$5,0*
20,1,$1+$1,$4,$5,$6,$7,0*
20,1,$1+$1,$6,$7,$8,$9,0*
20,1,$1+$1,$8,$9,$2,$3,0*%
G04 Aperture macros list end*
%TA.AperFunction,SMDPad,CuDef*%
%ADD10RoundRect,0.150000X0.150000X-0.850000X0.150000X0.850000X-0.150000X0.850000X-0.150000X-0.850000X0*%
%TD*%
%TA.AperFunction,ComponentPad*%
%ADD11R,1.700000X3.390000*%
%TD*%
%TA.AperFunction,SMDPad,CuDef*%
%ADD12R,0.400000X1.000000*%
%TD*%
%TA.AperFunction,ComponentPad*%
%ADD13C,1.400000*%
%TD*%
%TA.AperFunction,ComponentPad*%
%ADD14O,1.400000X1.400000*%
%TD*%
%TA.AperFunction,SMDPad,CuDef*%
%ADD15RoundRect,0.250000X-0.650000X0.412500X-0.650000X-0.412500X0.650000X-0.412500X0.650000X0.412500X0*%
%TD*%
%TA.AperFunction,ComponentPad*%
%ADD16R,1.700000X1.700000*%
%TD*%
%TA.AperFunction,ComponentPad*%
%ADD17O,1.700000X1.700000*%
%TD*%
%TA.AperFunction,SMDPad,CuDef*%
%ADD18RoundRect,0.250001X1.262499X1.974999X-1.262499X1.974999X-1.262499X-1.974999X1.262499X-1.974999X0*%
%TD*%
%TA.AperFunction,ComponentPad*%
%ADD19R,1.050000X1.500000*%
%TD*%
%TA.AperFunction,ComponentPad*%
%ADD20O,1.050000X1.500000*%
%TD*%
%TA.AperFunction,ViaPad*%
%ADD21C,0.800000*%
%TD*%
%TA.AperFunction,Conductor*%
%ADD22C,0.250000*%
%TD*%
G04 APERTURE END LIST*
D10*
%TO.P,U1,1,~{CS}*%
%TO.N,SS*%
X155575000Y-92500000D03*
%TO.P,U1,2,SO/SIO1*%
%TO.N,MISO*%
X156845000Y-92500000D03*
%TO.P,U1,3,~{WP}/SIO2*%
%TO.N,+3V3*%
X158115000Y-92500000D03*
%TO.P,U1,4,GND*%
%TO.N,GND*%
X159385000Y-92500000D03*
%TO.P,U1,5,SI/SIO0*%
%TO.N,MOSI*%
X159385000Y-85300000D03*
%TO.P,U1,6,SCLK*%
%TO.N,SCK*%
X158115000Y-85300000D03*
%TO.P,U1,7,~{RESET}/SIO3*%
%TO.N,+3V3*%
X156845000Y-85300000D03*
%TO.P,U1,8,VCC*%
X155575000Y-85300000D03*
%TD*%
D11*
%TO.P,J2,6,Pin_6*%
%TO.N,OUT*%
X147320000Y-98531500D03*
%TO.P,J2,5,Pin_5*%
%TO.N,OKY1*%
X149860000Y-98531500D03*
%TO.P,J2,4,Pin_4*%
%TO.N,OKY2*%
X152400000Y-98531500D03*
%TO.P,J2,3,Pin_3*%
%TO.N,IO1*%
X154940000Y-98531500D03*
%TO.P,J2,2,Pin_2*%
%TO.N,GND*%
X157480000Y-98531500D03*
%TO.P,J2,1,Pin_1*%
%TO.N,+3V3*%
X160020000Y-98531500D03*
%TD*%
D12*
%TO.P,U2,1,P0.5*%
%TO.N,unconnected-(U2-Pad1)*%
X145897200Y-91202000D03*
%TO.P,U2,2,P0.6*%
%TO.N,OKY1*%
X146557600Y-91202000D03*
%TO.P,U2,3,P0.7*%
%TO.N,OKY2*%
X147218000Y-91202000D03*
%TO.P,U2,4,P2.0*%
%TO.N,nRST*%
X147878400Y-91202000D03*
%TO.P,U2,5,P3.0*%
%TO.N,unconnected-(U2-Pad5)*%
X148538800Y-91202000D03*
%TO.P,U2,6,P1.7*%
%TO.N,unconnected-(U2-Pad6)*%
X149199200Y-91202000D03*
%TO.P,U2,7,GND*%
%TO.N,GND*%
X149859600Y-91202000D03*
%TO.P,U2,8,P1.6*%
%TO.N,ICE_DAT*%
X150520000Y-91208000D03*
%TO.P,U2,9,VDD*%
%TO.N,+3V3*%
X151180400Y-91202000D03*
%TO.P,U2,10,P1.5*%
%TO.N,SS*%
X151840800Y-91202000D03*
%TO.P,U2,11,P1.4*%
%TO.N,OUT*%
X151840800Y-85360000D03*
%TO.P,U2,12,P1.3*%
%TO.N,unconnected-(U2-Pad12)*%
X151180400Y-85360000D03*
%TO.P,U2,13,P1.2*%
%TO.N,IO1*%
X150520000Y-85354000D03*
%TO.P,U2,14,P1.1*%
%TO.N,unconnected-(U2-Pad14)*%
X149859600Y-85360000D03*
%TO.P,U2,15,P1.0*%
%TO.N,SCK*%
X149199200Y-85360000D03*
%TO.P,U2,16,P0.0*%
%TO.N,MOSI*%
X148538800Y-85360000D03*
%TO.P,U2,17,P0.1*%
%TO.N,MISO*%
X147878400Y-85360000D03*
%TO.P,U2,18,P0.2*%
%TO.N,ICE_CLK*%
X147218000Y-85360000D03*
%TO.P,U2,19,P0.3*%
%TO.N,unconnected-(U2-Pad19)*%
X146557600Y-85360000D03*
%TO.P,U2,20,P0.4*%
%TO.N,unconnected-(U2-Pad20)*%
X145897200Y-85360000D03*
%TD*%
D13*
%TO.P,R1,1*%
%TO.N,OUT*%
X146939000Y-82931000D03*
D14*
%TO.P,R1,2*%
%TO.N,Net-(Q1-Pad2)*%
X154559000Y-82931000D03*
%TD*%
D15*
%TO.P,C1,1*%
%TO.N,+3V3*%
X143510000Y-82257500D03*
%TO.P,C1,2*%
%TO.N,GND*%
X143510000Y-85382500D03*
%TD*%
D16*
%TO.P,J1,1,Pin_1*%
%TO.N,GND*%
X140335000Y-90165000D03*
D17*
%TO.P,J1,2,Pin_2*%
%TO.N,nRST*%
X140335000Y-87625000D03*
%TO.P,J1,3,Pin_3*%
%TO.N,ICE_CLK*%
X140335000Y-85085000D03*
%TO.P,J1,4,Pin_4*%
%TO.N,ICE_DAT*%
X140335000Y-82545000D03*
%TO.P,J1,5,Pin_5*%
%TO.N,+3V3*%
X140335000Y-80005000D03*
%TD*%
D18*
%TO.P,LS1,1,1*%
%TO.N,+3V3*%
X159357500Y-79375000D03*
%TO.P,LS1,2,2*%
%TO.N,TOUT*%
X154332500Y-79375000D03*
%TD*%
D19*
%TO.P,Q1,1,E*%
%TO.N,GND*%
X146685000Y-79735000D03*
D20*
%TO.P,Q1,2,B*%
%TO.N,Net-(Q1-Pad2)*%
X147955000Y-79735000D03*
%TO.P,Q1,3,C*%
%TO.N,TOUT*%
X149225000Y-79735000D03*
%TD*%
D21*
%TO.N,GND*%
X148590000Y-88900000D03*
X159385000Y-94615000D03*
%TO.N,IO1*%
X150495000Y-82550000D03*
%TO.N,OUT*%
X147320000Y-94615000D03*
X151765000Y-83820000D03*
%TO.N,MISO*%
X156845000Y-94615000D03*
X147852342Y-86811551D03*
%TD*%
D22*
%TO.N,+3V3*%
X151316289Y-90377489D02*
X151180400Y-90513378D01*
X157052489Y-90377489D02*
X151316289Y-90377489D01*
X158115000Y-91440000D02*
X157052489Y-90377489D01*
X151180400Y-90513378D02*
X151180400Y-91202000D01*
X158115000Y-92500000D02*
X158115000Y-91440000D01*
%TO.N,SCK*%
X153613449Y-89478449D02*
X155885551Y-89478449D01*
X150495000Y-86360000D02*
X153613449Y-89478449D01*
X149449200Y-86360000D02*
X150495000Y-86360000D01*
X155885551Y-89478449D02*
X158115000Y-87249000D01*
X158115000Y-87249000D02*
X158115000Y-85300000D01*
X149199200Y-86110000D02*
X149449200Y-86360000D01*
X149199200Y-85360000D02*
X149199200Y-86110000D01*
%TO.N,MOSI*%
X148538800Y-86308800D02*
X148538800Y-85360000D01*
X153035000Y-89927969D02*
X150102031Y-86995000D01*
X149225000Y-86995000D02*
X148538800Y-86308800D01*
X156198031Y-89927969D02*
X153035000Y-89927969D01*
X150102031Y-86995000D02*
X149225000Y-86995000D01*
X159385000Y-86741000D02*
X156198031Y-89927969D01*
X159385000Y-85300000D02*
X159385000Y-86741000D01*
%TO.N,+3V3*%
X159766000Y-79783500D02*
X159357500Y-79375000D01*
X159766000Y-83439000D02*
X159766000Y-79783500D01*
X159766000Y-83439000D02*
X157607000Y-83439000D01*
X157607000Y-83439000D02*
X156845000Y-84201000D01*
X156845000Y-84201000D02*
X156845000Y-85300000D01*
X160655000Y-88265000D02*
X160655000Y-84328000D01*
X160655000Y-84328000D02*
X159766000Y-83439000D01*
X158115000Y-90805000D02*
X160655000Y-88265000D01*
X158115000Y-92500000D02*
X158115000Y-90805000D01*
%TO.N,GND*%
X149859600Y-91202000D02*
X149859600Y-92709600D01*
X149859600Y-92709600D02*
X149860000Y-92710000D01*
X149859600Y-91202000D02*
X149859600Y-90169600D01*
%TO.N,nRST*%
X140335000Y-87625000D02*
X140975000Y-88265000D01*
X146685000Y-88265000D02*
X147878400Y-89458400D01*
X147878400Y-89458400D02*
X147878400Y-91202000D01*
X140975000Y-88265000D02*
X146685000Y-88265000D01*
%TO.N,ICE_CLK*%
X142240000Y-86995000D02*
X142425480Y-87180480D01*
X142425480Y-87180480D02*
X146050000Y-87180480D01*
X147218000Y-86012480D02*
X147218000Y-85360000D01*
X146050000Y-87180480D02*
X147218000Y-86012480D01*
X140335000Y-85085000D02*
X142240000Y-86990000D01*
X142240000Y-86990000D02*
X142240000Y-86995000D01*
%TO.N,ICE_DAT*%
X140335000Y-82545000D02*
X139160489Y-83719511D01*
X139160489Y-83719511D02*
X139160489Y-85820489D01*
X150520000Y-88925000D02*
X150520000Y-91208000D01*
X139160489Y-85820489D02*
X139700000Y-86360000D01*
X142001010Y-87630000D02*
X149225000Y-87630000D01*
X140731010Y-86360000D02*
X142001010Y-87630000D01*
X139700000Y-86360000D02*
X140731010Y-86360000D01*
X149225000Y-87630000D02*
X150520000Y-88925000D01*
%TO.N,+3V3*%
X143510000Y-82257500D02*
X142587500Y-82257500D01*
X143514520Y-76825480D02*
X140335000Y-80005000D01*
X158115000Y-92500000D02*
X158115000Y-95781500D01*
X142587500Y-82257500D02*
X140335000Y-80005000D01*
X156845000Y-85300000D02*
X155575000Y-85300000D01*
X158115000Y-95781500D02*
X160020000Y-97686500D01*
X159357500Y-79375000D02*
X156807980Y-76825480D01*
X156807980Y-76825480D02*
X143514520Y-76825480D01*
%TO.N,IO1*%
X150520000Y-85354000D02*
X150520000Y-82575000D01*
X150520000Y-82575000D02*
X150495000Y-82550000D01*
%TO.N,OKY1*%
X147319282Y-92710000D02*
X148590000Y-93980718D01*
X148590000Y-94615000D02*
X149860000Y-95885000D01*
X149860000Y-95885000D02*
X149860000Y-97686500D01*
X146685000Y-92710000D02*
X147319282Y-92710000D01*
X146557600Y-91202000D02*
X146557600Y-92582600D01*
X146557600Y-92582600D02*
X146685000Y-92710000D01*
X148590000Y-93980718D02*
X148590000Y-94615000D01*
%TO.N,OKY2*%
X149225000Y-94511500D02*
X152400000Y-97686500D01*
X147218000Y-91973000D02*
X149225000Y-93980000D01*
X149225000Y-93980000D02*
X149225000Y-94511500D01*
X147218000Y-91202000D02*
X147218000Y-91973000D01*
%TO.N,OUT*%
X147320000Y-94615000D02*
X147320000Y-99060000D01*
X151840800Y-85360000D02*
X151840800Y-83895800D01*
X151840800Y-83895800D02*
X151765000Y-83820000D01*
%TO.N,TOUT*%
X153972500Y-79735000D02*
X154332500Y-79375000D01*
X149225000Y-79735000D02*
X153972500Y-79735000D01*
%TO.N,SS*%
X153670000Y-92710000D02*
X155365000Y-92710000D01*
X152162000Y-91202000D02*
X153670000Y-92710000D01*
X151840800Y-91202000D02*
X152162000Y-91202000D01*
X155365000Y-92710000D02*
X155575000Y-92500000D01*
%TO.N,MISO*%
X156845000Y-94615000D02*
X156845000Y-92500000D01*
X147878400Y-85360000D02*
X147878400Y-86785493D01*
X147878400Y-86785493D02*
X147852342Y-86811551D01*
%TD*%
%TA.AperFunction,Conductor*%
%TO.N,GND*%
G36*
X149900632Y-92029457D02*
G01*
X149945695Y-92058418D01*
X149951358Y-92064081D01*
X149956739Y-92071261D01*
X149963919Y-92076642D01*
X150009684Y-92110941D01*
X150052199Y-92167800D01*
X150055015Y-92176269D01*
X150064074Y-92207123D01*
X150065465Y-92208328D01*
X150073148Y-92209999D01*
X150104269Y-92209999D01*
X150111091Y-92209629D01*
X150159756Y-92204344D01*
X150202412Y-92207019D01*
X150209684Y-92209745D01*
X150217532Y-92210598D01*
X150217534Y-92210598D01*
X150268469Y-92216131D01*
X150271866Y-92216500D01*
X150768134Y-92216500D01*
X150830316Y-92209745D01*
X150836772Y-92207325D01*
X150878788Y-92204691D01*
X150928867Y-92210131D01*
X150928871Y-92210131D01*
X150932266Y-92210500D01*
X151428534Y-92210500D01*
X151436534Y-92209631D01*
X151490716Y-92203745D01*
X151490845Y-92204932D01*
X151530355Y-92204932D01*
X151530484Y-92203745D01*
X151584667Y-92209631D01*
X151592666Y-92210500D01*
X152088934Y-92210500D01*
X152151116Y-92203745D01*
X152160052Y-92200395D01*
X152161333Y-92200301D01*
X152166200Y-92199144D01*
X152166387Y-92199931D01*
X152230859Y-92195212D01*
X152293378Y-92229282D01*
X153166353Y-93102258D01*
X153173887Y-93110537D01*
X153178000Y-93117018D01*
X153227651Y-93163643D01*
X153230493Y-93166398D01*
X153250230Y-93186135D01*
X153253427Y-93188615D01*
X153262447Y-93196318D01*
X153294679Y-93226586D01*
X153301625Y-93230405D01*
X153301628Y-93230407D01*
X153312434Y-93236348D01*
X153328953Y-93247199D01*
X153344959Y-93259614D01*
X153352228Y-93262759D01*
X153352232Y-93262762D01*
X153385537Y-93277174D01*
X153396187Y-93282391D01*
X153434940Y-93303695D01*
X153442615Y-93305666D01*
X153442616Y-93305666D01*
X153454562Y-93308733D01*
X153473267Y-93315137D01*
X153491855Y-93323181D01*
X153499678Y-93324420D01*
X153499688Y-93324423D01*
X153535524Y-93330099D01*
X153547144Y-93332505D01*
X153582289Y-93341528D01*
X153589970Y-93343500D01*
X153610224Y-93343500D01*
X153629934Y-93345051D01*
X153649943Y-93348220D01*
X153657835Y-93347474D01*
X153693961Y-93344059D01*
X153705819Y-93343500D01*
X154644882Y-93343500D01*
X154713003Y-93363502D01*
X154759496Y-93417158D01*
X154768831Y-93446859D01*
X154768933Y-93447420D01*
X154769438Y-93453831D01*
X154771233Y-93460009D01*
X154771233Y-93460010D01*
X154813586Y-93605790D01*
X154815855Y-93613601D01*
X154832311Y-93641427D01*
X154896509Y-93749980D01*
X154896511Y-93749983D01*
X154900547Y-93756807D01*
X155018193Y-93874453D01*
X155025017Y-93878489D01*
X155025020Y-93878491D01*
X155078888Y-93910348D01*
X155161399Y-93959145D01*
X155169010Y-93961356D01*
X155169012Y-93961357D01*
X155221231Y-93976528D01*
X155321169Y-94005562D01*
X155327574Y-94006066D01*
X155327579Y-94006067D01*
X155356042Y-94008307D01*
X155356050Y-94008307D01*
X155358498Y-94008500D01*
X155791502Y-94008500D01*
X155793950Y-94008307D01*
X155793958Y-94008307D01*
X155822421Y-94006067D01*
X155822426Y-94006066D01*
X155828831Y-94005562D01*
X155911113Y-93981657D01*
X155982110Y-93981860D01*
X156041726Y-94020414D01*
X156071034Y-94085079D01*
X156060730Y-94155324D01*
X156055385Y-94165654D01*
X156010473Y-94243444D01*
X155951458Y-94425072D01*
X155950768Y-94431633D01*
X155950768Y-94431635D01*
X155944887Y-94487587D01*
X155931496Y-94615000D01*
X155951458Y-94804928D01*
X156010473Y-94986556D01*
X156105960Y-95151944D01*
X156233747Y-95293866D01*
X156388248Y-95406118D01*
X156394276Y-95408802D01*
X156394278Y-95408803D01*
X156556681Y-95481109D01*
X156562712Y-95483794D01*
X156656112Y-95503647D01*
X156743056Y-95522128D01*
X156743061Y-95522128D01*
X156749513Y-95523500D01*
X156940487Y-95523500D01*
X156946939Y-95522128D01*
X156946944Y-95522128D01*
X157033888Y-95503647D01*
X157127288Y-95483794D01*
X157151656Y-95472945D01*
X157301752Y-95406118D01*
X157302677Y-95408196D01*
X157361488Y-95393924D01*
X157428581Y-95417141D01*
X157472472Y-95472945D01*
X157481500Y-95519782D01*
X157481500Y-95702733D01*
X157480973Y-95713916D01*
X157479298Y-95721409D01*
X157479547Y-95729335D01*
X157479547Y-95729336D01*
X157481438Y-95789486D01*
X157481500Y-95793445D01*
X157481500Y-95821356D01*
X157481997Y-95825290D01*
X157481997Y-95825291D01*
X157482005Y-95825356D01*
X157482938Y-95837193D01*
X157484327Y-95881389D01*
X157489978Y-95900839D01*
X157493987Y-95920200D01*
X157496526Y-95940297D01*
X157499445Y-95947668D01*
X157499445Y-95947670D01*
X157512804Y-95981412D01*
X157516649Y-95992642D01*
X157528982Y-96035093D01*
X157533015Y-96041912D01*
X157533017Y-96041917D01*
X157539293Y-96052528D01*
X157547988Y-96070276D01*
X157555448Y-96089117D01*
X157560110Y-96095533D01*
X157560110Y-96095534D01*
X157581436Y-96124887D01*
X157587952Y-96134807D01*
X157610458Y-96172862D01*
X157624779Y-96187183D01*
X157637619Y-96202216D01*
X157649528Y-96218607D01*
X157655634Y-96223658D01*
X157683605Y-96246798D01*
X157692384Y-96254788D01*
X157697095Y-96259499D01*
X157731121Y-96321811D01*
X157734000Y-96348594D01*
X157734000Y-98659500D01*
X157713998Y-98727621D01*
X157660342Y-98774114D01*
X157608000Y-98785500D01*
X157352000Y-98785500D01*
X157283879Y-98765498D01*
X157237386Y-98711842D01*
X157226000Y-98659500D01*
X157226000Y-96346616D01*
X157221525Y-96331377D01*
X157220135Y-96330172D01*
X157212452Y-96328501D01*
X156585331Y-96328501D01*
X156578510Y-96328871D01*
X156527648Y-96334395D01*
X156512396Y-96338021D01*
X156391946Y-96383176D01*
X156376351Y-96391714D01*
X156285982Y-96459442D01*
X156219475Y-96484290D01*
X156150093Y-96469237D01*
X156134852Y-96459442D01*
X156081557Y-96419500D01*
X156036705Y-96385885D01*
X155900316Y-96334755D01*
X155838134Y-96328000D01*
X154041866Y-96328000D01*
X153979684Y-96334755D01*
X153843295Y-96385885D01*
X153745565Y-96459130D01*
X153679059Y-96483978D01*
X153609676Y-96468925D01*
X153594435Y-96459130D01*
X153496705Y-96385885D01*
X153360316Y-96334755D01*
X153298134Y-96328000D01*
X151989594Y-96328000D01*
X151921473Y-96307998D01*
X151900499Y-96291095D01*
X149895405Y-94286000D01*
X149861379Y-94223688D01*
X149858500Y-94196905D01*
X149858500Y-94058768D01*
X149859027Y-94047585D01*
X149860702Y-94040092D01*
X149859491Y-94001544D01*
X149858562Y-93972002D01*
X149858500Y-93968044D01*
X149858500Y-93940144D01*
X149857994Y-93936134D01*
X149857063Y-93924311D01*
X149857020Y-93922925D01*
X149855674Y-93880111D01*
X149852286Y-93868449D01*
X149850021Y-93860652D01*
X149846012Y-93841293D01*
X149845846Y-93839983D01*
X149843474Y-93821203D01*
X149840558Y-93813837D01*
X149840556Y-93813831D01*
X149827200Y-93780098D01*
X149823355Y-93768868D01*
X149813230Y-93734017D01*
X149813230Y-93734016D01*
X149811019Y-93726407D01*
X149800705Y-93708966D01*
X149792008Y-93691213D01*
X149787472Y-93679758D01*
X149784552Y-93672383D01*
X149762061Y-93641427D01*
X149758563Y-93636612D01*
X149752047Y-93626692D01*
X149739803Y-93605988D01*
X149729542Y-93588638D01*
X149715221Y-93574317D01*
X149702380Y-93559283D01*
X149695131Y-93549306D01*
X149690472Y-93542893D01*
X149656395Y-93514702D01*
X149647616Y-93506712D01*
X148566500Y-92425595D01*
X148532474Y-92363283D01*
X148537539Y-92292467D01*
X148580086Y-92235632D01*
X148646606Y-92210821D01*
X148655595Y-92210500D01*
X148786934Y-92210500D01*
X148794934Y-92209631D01*
X148849116Y-92203745D01*
X148849245Y-92204932D01*
X148888755Y-92204932D01*
X148888884Y-92203745D01*
X148943067Y-92209631D01*
X148951066Y-92210500D01*
X149447334Y-92210500D01*
X149455334Y-92209631D01*
X149509516Y-92203745D01*
X149509617Y-92204675D01*
X149549238Y-92204675D01*
X149549393Y-92203252D01*
X149608114Y-92209631D01*
X149614928Y-92210000D01*
X149641485Y-92210000D01*
X149656724Y-92205525D01*
X149657929Y-92204135D01*
X149662479Y-92183217D01*
X149665889Y-92183959D01*
X149679602Y-92137257D01*
X149710035Y-92104552D01*
X149755281Y-92070642D01*
X149762461Y-92065261D01*
X149767648Y-92058340D01*
X149829817Y-92024392D01*
X149900632Y-92029457D01*
G37*
%TD.AperFunction*%
%TA.AperFunction,Conductor*%
G36*
X146438527Y-88918502D02*
G01*
X146459501Y-88935405D01*
X147207995Y-89683899D01*
X147242021Y-89746211D01*
X147244900Y-89772994D01*
X147244900Y-90067500D01*
X147224898Y-90135621D01*
X147171242Y-90182114D01*
X147118900Y-90193500D01*
X146969866Y-90193500D01*
X146907684Y-90200255D01*
X146907555Y-90199068D01*
X146868045Y-90199068D01*
X146867916Y-90200255D01*
X146809131Y-90193869D01*
X146805734Y-90193500D01*
X146309466Y-90193500D01*
X146247284Y-90200255D01*
X146247155Y-90199068D01*
X146207645Y-90199068D01*
X146207516Y-90200255D01*
X146148731Y-90193869D01*
X146145334Y-90193500D01*
X145649066Y-90193500D01*
X145586884Y-90200255D01*
X145450495Y-90251385D01*
X145333939Y-90338739D01*
X145246585Y-90455295D01*
X145195455Y-90591684D01*
X145188700Y-90653866D01*
X145188700Y-91750134D01*
X145195455Y-91812316D01*
X145246585Y-91948705D01*
X145333939Y-92065261D01*
X145450495Y-92152615D01*
X145586884Y-92203745D01*
X145649066Y-92210500D01*
X145798100Y-92210500D01*
X145866221Y-92230502D01*
X145912714Y-92284158D01*
X145924100Y-92336500D01*
X145924100Y-92503833D01*
X145923573Y-92515016D01*
X145921898Y-92522509D01*
X145922147Y-92530435D01*
X145922147Y-92530436D01*
X145924038Y-92590586D01*
X145924100Y-92594545D01*
X145924100Y-92622456D01*
X145924597Y-92626390D01*
X145924597Y-92626391D01*
X145924605Y-92626456D01*
X145925538Y-92638293D01*
X145926927Y-92682489D01*
X145932578Y-92701939D01*
X145936587Y-92721300D01*
X145939126Y-92741397D01*
X145942045Y-92748768D01*
X145942045Y-92748770D01*
X145955404Y-92782512D01*
X145959249Y-92793742D01*
X145971582Y-92836193D01*
X145975615Y-92843012D01*
X145975617Y-92843017D01*
X145981893Y-92853628D01*
X145990588Y-92871376D01*
X145998048Y-92890217D01*
X146002710Y-92896633D01*
X146002710Y-92896634D01*
X146024036Y-92925987D01*
X146030552Y-92935907D01*
X146053058Y-92973962D01*
X146067382Y-92988286D01*
X146080217Y-93003313D01*
X146092128Y-93019707D01*
X146098236Y-93024760D01*
X146098238Y-93024762D01*
X146126198Y-93047892D01*
X146134978Y-93055882D01*
X146181347Y-93102251D01*
X146188887Y-93110537D01*
X146193000Y-93117018D01*
X146198779Y-93122445D01*
X146198780Y-93122446D01*
X146242652Y-93163644D01*
X146245493Y-93166398D01*
X146265230Y-93186135D01*
X146268427Y-93188615D01*
X146277447Y-93196318D01*
X146309679Y-93226586D01*
X146316625Y-93230405D01*
X146316628Y-93230407D01*
X146327434Y-93236348D01*
X146343953Y-93247199D01*
X146359959Y-93259614D01*
X146367228Y-93262759D01*
X146367232Y-93262762D01*
X146400537Y-93277174D01*
X146411187Y-93282391D01*
X146449940Y-93303695D01*
X146457615Y-93305666D01*
X146457616Y-93305666D01*
X146469562Y-93308733D01*
X146488267Y-93315137D01*
X146506855Y-93323181D01*
X146514678Y-93324420D01*
X146514688Y-93324423D01*
X146550524Y-93330099D01*
X146562144Y-93332505D01*
X146597289Y-93341528D01*
X146604970Y-93343500D01*
X146625224Y-93343500D01*
X146644934Y-93345051D01*
X146664943Y-93348220D01*
X146672835Y-93347474D01*
X146708961Y-93344059D01*
X146720819Y-93343500D01*
X147004688Y-93343500D01*
X147072809Y-93363502D01*
X147093783Y-93380405D01*
X147221538Y-93508160D01*
X147255564Y-93570472D01*
X147250499Y-93641287D01*
X147207952Y-93698123D01*
X147158641Y-93720502D01*
X147037712Y-93746206D01*
X147031682Y-93748891D01*
X147031681Y-93748891D01*
X146869278Y-93821197D01*
X146869276Y-93821198D01*
X146863248Y-93823882D01*
X146708747Y-93936134D01*
X146704326Y-93941044D01*
X146704325Y-93941045D01*
X146649852Y-94001544D01*
X146580960Y-94078056D01*
X146485473Y-94243444D01*
X146426458Y-94425072D01*
X146425768Y-94431633D01*
X146425768Y-94431635D01*
X146419887Y-94487587D01*
X146406496Y-94615000D01*
X146426458Y-94804928D01*
X146485473Y-94986556D01*
X146580960Y-95151944D01*
X146654137Y-95233215D01*
X146684853Y-95297221D01*
X146686500Y-95317524D01*
X146686500Y-96202000D01*
X146666498Y-96270121D01*
X146612842Y-96316614D01*
X146560500Y-96328000D01*
X146421866Y-96328000D01*
X146359684Y-96334755D01*
X146223295Y-96385885D01*
X146178443Y-96419500D01*
X146124565Y-96459879D01*
X146058059Y-96484727D01*
X145988676Y-96469674D01*
X145938446Y-96419500D01*
X145923000Y-96359053D01*
X145923000Y-93988702D01*
X145923002Y-93987932D01*
X145923111Y-93970029D01*
X145923476Y-93910348D01*
X145921010Y-93901719D01*
X145921009Y-93901714D01*
X145915361Y-93881952D01*
X145911783Y-93865191D01*
X145908870Y-93844848D01*
X145908867Y-93844838D01*
X145907595Y-93835955D01*
X145896979Y-93812605D01*
X145890536Y-93795093D01*
X145885954Y-93779063D01*
X145883488Y-93770435D01*
X145867726Y-93745452D01*
X145859596Y-93730386D01*
X145847367Y-93703490D01*
X145830626Y-93684061D01*
X145819521Y-93669053D01*
X145810630Y-93654961D01*
X145805840Y-93647369D01*
X145783703Y-93627818D01*
X145771659Y-93615626D01*
X145758239Y-93600051D01*
X145758237Y-93600050D01*
X145752381Y-93593253D01*
X145744853Y-93588374D01*
X145744850Y-93588371D01*
X145730861Y-93579304D01*
X145715987Y-93568014D01*
X145703502Y-93556988D01*
X145696772Y-93551044D01*
X145688646Y-93547229D01*
X145688645Y-93547228D01*
X145682979Y-93544568D01*
X145670034Y-93538490D01*
X145655065Y-93530176D01*
X145630273Y-93514107D01*
X145605709Y-93506761D01*
X145588264Y-93500099D01*
X145565052Y-93489201D01*
X145535870Y-93484657D01*
X145519151Y-93480874D01*
X145499464Y-93474986D01*
X145499461Y-93474985D01*
X145490859Y-93472413D01*
X145481884Y-93472358D01*
X145481883Y-93472358D01*
X145475190Y-93472317D01*
X145456444Y-93472203D01*
X145455672Y-93472170D01*
X145454577Y-93472000D01*
X145423702Y-93472000D01*
X145422932Y-93471998D01*
X145349284Y-93471548D01*
X145349283Y-93471548D01*
X145345348Y-93471524D01*
X145344004Y-93471908D01*
X145342659Y-93472000D01*
X139064000Y-93472000D01*
X138995879Y-93451998D01*
X138949386Y-93398342D01*
X138938000Y-93346000D01*
X138938000Y-91491822D01*
X138958002Y-91423701D01*
X139011658Y-91377208D01*
X139081932Y-91367104D01*
X139139565Y-91390996D01*
X139231351Y-91459786D01*
X139246946Y-91468324D01*
X139367394Y-91513478D01*
X139382649Y-91517105D01*
X139433514Y-91522631D01*
X139440328Y-91523000D01*
X140062885Y-91523000D01*
X140078124Y-91518525D01*
X140079329Y-91517135D01*
X140081000Y-91509452D01*
X140081000Y-91504884D01*
X140589000Y-91504884D01*
X140593475Y-91520123D01*
X140594865Y-91521328D01*
X140602548Y-91522999D01*
X141229669Y-91522999D01*
X141236490Y-91522629D01*
X141287352Y-91517105D01*
X141302604Y-91513479D01*
X141423054Y-91468324D01*
X141438649Y-91459786D01*
X141540724Y-91383285D01*
X141553285Y-91370724D01*
X141629786Y-91268649D01*
X141638324Y-91253054D01*
X141683478Y-91132606D01*
X141687105Y-91117351D01*
X141692631Y-91066486D01*
X141693000Y-91059672D01*
X141693000Y-90437115D01*
X141688525Y-90421876D01*
X141687135Y-90420671D01*
X141679452Y-90419000D01*
X140607115Y-90419000D01*
X140591876Y-90423475D01*
X140590671Y-90424865D01*
X140589000Y-90432548D01*
X140589000Y-91504884D01*
X140081000Y-91504884D01*
X140081000Y-90037000D01*
X140101002Y-89968879D01*
X140154658Y-89922386D01*
X140207000Y-89911000D01*
X141674884Y-89911000D01*
X141690123Y-89906525D01*
X141691328Y-89905135D01*
X141692999Y-89897452D01*
X141692999Y-89270331D01*
X141692629Y-89263510D01*
X141687105Y-89212648D01*
X141683479Y-89197396D01*
X141635244Y-89068730D01*
X141630061Y-88997923D01*
X141663982Y-88935554D01*
X141726237Y-88901424D01*
X141753226Y-88898500D01*
X146370406Y-88898500D01*
X146438527Y-88918502D01*
G37*
%TD.AperFunction*%
%TA.AperFunction,Conductor*%
G36*
X161366797Y-88584000D02*
G01*
X161409181Y-88640957D01*
X161417000Y-88684652D01*
X161417000Y-96359053D01*
X161396998Y-96427174D01*
X161343342Y-96473667D01*
X161273068Y-96483771D01*
X161215435Y-96459879D01*
X161161557Y-96419500D01*
X161116705Y-96385885D01*
X160980316Y-96334755D01*
X160918134Y-96328000D01*
X159609595Y-96328000D01*
X159541474Y-96307998D01*
X159520499Y-96291095D01*
X158785404Y-95555999D01*
X158751379Y-95493687D01*
X158748500Y-95466904D01*
X158748500Y-94047643D01*
X158768502Y-93979522D01*
X158822158Y-93933029D01*
X158892432Y-93922925D01*
X158938639Y-93939189D01*
X158964779Y-93954648D01*
X158979210Y-93960893D01*
X159113605Y-93999939D01*
X159127706Y-93999899D01*
X159131000Y-93992630D01*
X159131000Y-93986878D01*
X159639000Y-93986878D01*
X159642973Y-94000409D01*
X159650871Y-94001544D01*
X159790790Y-93960893D01*
X159805221Y-93954648D01*
X159934678Y-93878089D01*
X159947104Y-93868449D01*
X160053449Y-93762104D01*
X160063089Y-93749678D01*
X160139648Y-93620221D01*
X160145893Y-93605790D01*
X160188269Y-93459935D01*
X160190570Y-93447333D01*
X160192807Y-93418916D01*
X160193000Y-93413986D01*
X160193000Y-92772115D01*
X160188525Y-92756876D01*
X160187135Y-92755671D01*
X160179452Y-92754000D01*
X159657115Y-92754000D01*
X159641876Y-92758475D01*
X159640671Y-92759865D01*
X159639000Y-92767548D01*
X159639000Y-93986878D01*
X159131000Y-93986878D01*
X159131000Y-92227885D01*
X159639000Y-92227885D01*
X159643475Y-92243124D01*
X159644865Y-92244329D01*
X159652548Y-92246000D01*
X160174884Y-92246000D01*
X160190123Y-92241525D01*
X160191328Y-92240135D01*
X160192999Y-92232452D01*
X160192999Y-91586017D01*
X160192805Y-91581080D01*
X160190570Y-91552664D01*
X160188270Y-91540069D01*
X160145893Y-91394210D01*
X160139648Y-91379779D01*
X160063089Y-91250322D01*
X160053449Y-91237896D01*
X159947104Y-91131551D01*
X159934678Y-91121911D01*
X159805221Y-91045352D01*
X159790790Y-91039107D01*
X159656395Y-91000061D01*
X159642294Y-91000101D01*
X159639000Y-91007370D01*
X159639000Y-92227885D01*
X159131000Y-92227885D01*
X159131000Y-91013122D01*
X159127027Y-90999592D01*
X159104524Y-90996357D01*
X159039943Y-90966864D01*
X159001559Y-90907138D01*
X159001559Y-90836141D01*
X159033360Y-90782544D01*
X161047247Y-88768657D01*
X161055537Y-88761113D01*
X161062018Y-88757000D01*
X161108659Y-88707332D01*
X161111413Y-88704491D01*
X161131134Y-88684770D01*
X161133612Y-88681575D01*
X161141318Y-88672553D01*
X161166158Y-88646101D01*
X161171586Y-88640321D01*
X161175408Y-88633369D01*
X161180586Y-88623951D01*
X161230931Y-88573892D01*
X161300348Y-88558999D01*
X161366797Y-88584000D01*
G37*
%TD.AperFunction*%
%TA.AperFunction,Conductor*%
G36*
X148978527Y-88283502D02*
G01*
X148999501Y-88300405D01*
X149849595Y-89150499D01*
X149883621Y-89212811D01*
X149886500Y-89239594D01*
X149886500Y-90068000D01*
X149866498Y-90136121D01*
X149812842Y-90182614D01*
X149760501Y-90194000D01*
X149614932Y-90194001D01*
X149608110Y-90194371D01*
X149549393Y-90200748D01*
X149549239Y-90199328D01*
X149509617Y-90199326D01*
X149509516Y-90200255D01*
X149450731Y-90193869D01*
X149447334Y-90193500D01*
X148951066Y-90193500D01*
X148888884Y-90200255D01*
X148888755Y-90199068D01*
X148849245Y-90199068D01*
X148849116Y-90200255D01*
X148790331Y-90193869D01*
X148786934Y-90193500D01*
X148637900Y-90193500D01*
X148569779Y-90173498D01*
X148523286Y-90119842D01*
X148511900Y-90067500D01*
X148511900Y-89537163D01*
X148512427Y-89525979D01*
X148514101Y-89518491D01*
X148511962Y-89450432D01*
X148511900Y-89446475D01*
X148511900Y-89418544D01*
X148511394Y-89414538D01*
X148510461Y-89402692D01*
X148509322Y-89366437D01*
X148509073Y-89358510D01*
X148503422Y-89339058D01*
X148499414Y-89319706D01*
X148497868Y-89307468D01*
X148497867Y-89307466D01*
X148496874Y-89299603D01*
X148480594Y-89258486D01*
X148476759Y-89247285D01*
X148464418Y-89204806D01*
X148460385Y-89197987D01*
X148460383Y-89197982D01*
X148454107Y-89187371D01*
X148445410Y-89169621D01*
X148437952Y-89150783D01*
X148411971Y-89115023D01*
X148405453Y-89105101D01*
X148386978Y-89073860D01*
X148386974Y-89073855D01*
X148382942Y-89067037D01*
X148368618Y-89052713D01*
X148355776Y-89037678D01*
X148343872Y-89021293D01*
X148309806Y-88993111D01*
X148301027Y-88985122D01*
X147794500Y-88478595D01*
X147760474Y-88416283D01*
X147765539Y-88345468D01*
X147808086Y-88288632D01*
X147874606Y-88263821D01*
X147883595Y-88263500D01*
X148910406Y-88263500D01*
X148978527Y-88283502D01*
G37*
%TD.AperFunction*%
%TA.AperFunction,Conductor*%
G36*
X152253621Y-77478982D02*
G01*
X152300114Y-77532638D01*
X152311500Y-77584980D01*
X152311500Y-78975500D01*
X152291498Y-79043621D01*
X152237842Y-79090114D01*
X152185500Y-79101500D01*
X150254067Y-79101500D01*
X150185946Y-79081498D01*
X150142815Y-79034653D01*
X150092883Y-78940743D01*
X150089990Y-78935302D01*
X149961890Y-78778237D01*
X149949539Y-78768019D01*
X149810472Y-78652973D01*
X149810469Y-78652971D01*
X149805722Y-78649044D01*
X149627435Y-78552644D01*
X149530628Y-78522677D01*
X149439707Y-78494532D01*
X149439704Y-78494531D01*
X149433820Y-78492710D01*
X149427695Y-78492066D01*
X149427694Y-78492066D01*
X149238378Y-78472168D01*
X149238377Y-78472168D01*
X149232250Y-78471524D01*
X149153709Y-78478672D01*
X149036543Y-78489335D01*
X149036540Y-78489336D01*
X149030404Y-78489894D01*
X149024498Y-78491632D01*
X149024494Y-78491633D01*
X148888442Y-78531676D01*
X148835971Y-78547119D01*
X148830514Y-78549972D01*
X148830511Y-78549973D01*
X148746163Y-78594069D01*
X148656540Y-78640923D01*
X148656538Y-78640923D01*
X148656355Y-78641019D01*
X148656337Y-78640984D01*
X148590559Y-78660889D01*
X148529591Y-78645729D01*
X148520815Y-78640984D01*
X148357435Y-78552644D01*
X148260628Y-78522677D01*
X148169707Y-78494532D01*
X148169704Y-78494531D01*
X148163820Y-78492710D01*
X148157695Y-78492066D01*
X148157694Y-78492066D01*
X147968378Y-78472168D01*
X147968377Y-78472168D01*
X147962250Y-78471524D01*
X147883709Y-78478672D01*
X147766543Y-78489335D01*
X147766540Y-78489336D01*
X147760404Y-78489894D01*
X147754498Y-78491632D01*
X147754494Y-78491633D01*
X147663188Y-78518506D01*
X147565971Y-78547119D01*
X147565771Y-78546441D01*
X147499727Y-78552956D01*
X147462677Y-78539680D01*
X147448063Y-78531679D01*
X147327606Y-78486522D01*
X147312351Y-78482895D01*
X147261486Y-78477369D01*
X147254672Y-78477000D01*
X146957115Y-78477000D01*
X146941876Y-78481475D01*
X146940671Y-78482865D01*
X146939000Y-78490548D01*
X146939000Y-79288758D01*
X146938215Y-79302803D01*
X146921500Y-79451817D01*
X146921500Y-80011004D01*
X146936277Y-80161713D01*
X146936968Y-80164002D01*
X146939000Y-80184724D01*
X146939000Y-80974884D01*
X146943475Y-80990123D01*
X146944865Y-80991328D01*
X146952548Y-80992999D01*
X147254669Y-80992999D01*
X147261490Y-80992629D01*
X147312352Y-80987105D01*
X147327604Y-80983479D01*
X147448056Y-80938323D01*
X147463466Y-80929886D01*
X147532823Y-80914716D01*
X147561235Y-80920040D01*
X147746180Y-80977290D01*
X147752305Y-80977934D01*
X147752306Y-80977934D01*
X147941622Y-80997832D01*
X147941623Y-80997832D01*
X147947750Y-80998476D01*
X148057090Y-80988525D01*
X148143457Y-80980665D01*
X148143460Y-80980664D01*
X148149596Y-80980106D01*
X148155502Y-80978368D01*
X148155506Y-80978367D01*
X148338120Y-80924620D01*
X148338119Y-80924620D01*
X148344029Y-80922881D01*
X148349486Y-80920028D01*
X148349489Y-80920027D01*
X148501182Y-80840724D01*
X148523460Y-80829077D01*
X148523462Y-80829077D01*
X148523645Y-80828981D01*
X148523663Y-80829016D01*
X148589441Y-80809111D01*
X148650409Y-80824271D01*
X148822565Y-80917356D01*
X148919373Y-80947323D01*
X149010293Y-80975468D01*
X149010296Y-80975469D01*
X149016180Y-80977290D01*
X149022305Y-80977934D01*
X149022306Y-80977934D01*
X149211622Y-80997832D01*
X149211623Y-80997832D01*
X149217750Y-80998476D01*
X149327090Y-80988525D01*
X149413457Y-80980665D01*
X149413460Y-80980664D01*
X149419596Y-80980106D01*
X149425502Y-80978368D01*
X149425506Y-80978367D01*
X149608120Y-80924620D01*
X149608119Y-80924620D01*
X149614029Y-80922881D01*
X149619486Y-80920028D01*
X149619489Y-80920027D01*
X149771182Y-80840724D01*
X149793645Y-80828981D01*
X149951601Y-80701981D01*
X150081881Y-80546719D01*
X150084845Y-80541327D01*
X150084848Y-80541323D01*
X150143959Y-80433799D01*
X150194304Y-80383741D01*
X150254374Y-80368500D01*
X152185500Y-80368500D01*
X152253621Y-80388502D01*
X152300114Y-80442158D01*
X152311500Y-80494500D01*
X152311500Y-81400400D01*
X152322474Y-81506165D01*
X152324655Y-81512701D01*
X152324655Y-81512703D01*
X152329759Y-81528002D01*
X152378450Y-81673945D01*
X152471522Y-81824348D01*
X152596697Y-81949305D01*
X152602927Y-81953145D01*
X152602928Y-81953146D01*
X152740090Y-82037694D01*
X152747262Y-82042115D01*
X152827005Y-82068564D01*
X152908611Y-82095632D01*
X152908613Y-82095632D01*
X152915139Y-82097797D01*
X152921975Y-82098497D01*
X152921978Y-82098498D01*
X152965031Y-82102909D01*
X153019600Y-82108500D01*
X153417572Y-82108500D01*
X153485693Y-82128502D01*
X153532186Y-82182158D01*
X153542290Y-82252432D01*
X153520785Y-82306770D01*
X153508411Y-82324442D01*
X153419044Y-82516090D01*
X153417622Y-82521398D01*
X153417621Y-82521400D01*
X153409958Y-82550000D01*
X153364314Y-82720345D01*
X153345884Y-82931000D01*
X153364314Y-83141655D01*
X153365738Y-83146968D01*
X153365738Y-83146970D01*
X153396908Y-83263296D01*
X153419044Y-83345910D01*
X153421366Y-83350891D01*
X153421367Y-83350892D01*
X153426601Y-83362115D01*
X153508411Y-83537558D01*
X153629699Y-83710776D01*
X153779224Y-83860301D01*
X153952442Y-83981589D01*
X153957420Y-83983910D01*
X153957423Y-83983912D01*
X154139108Y-84068633D01*
X154144090Y-84070956D01*
X154149398Y-84072378D01*
X154149400Y-84072379D01*
X154343030Y-84124262D01*
X154343032Y-84124262D01*
X154348345Y-84125686D01*
X154559000Y-84144116D01*
X154564475Y-84143637D01*
X154564486Y-84143637D01*
X154651840Y-84135994D01*
X154721445Y-84149982D01*
X154772437Y-84199381D01*
X154788628Y-84268507D01*
X154783819Y-84296665D01*
X154773700Y-84331498D01*
X154769438Y-84346169D01*
X154768934Y-84352574D01*
X154768933Y-84352579D01*
X154766693Y-84381042D01*
X154766500Y-84383498D01*
X154766500Y-86216502D01*
X154769438Y-86253831D01*
X154784371Y-86305231D01*
X154810054Y-86393632D01*
X154815855Y-86413601D01*
X154819892Y-86420427D01*
X154896509Y-86549980D01*
X154896511Y-86549983D01*
X154900547Y-86556807D01*
X155018193Y-86674453D01*
X155025017Y-86678489D01*
X155025020Y-86678491D01*
X155099116Y-86722311D01*
X155161399Y-86759145D01*
X155169010Y-86761356D01*
X155169012Y-86761357D01*
X155188498Y-86767018D01*
X155321169Y-86805562D01*
X155327574Y-86806066D01*
X155327579Y-86806067D01*
X155356042Y-86808307D01*
X155356050Y-86808307D01*
X155358498Y-86808500D01*
X155791502Y-86808500D01*
X155793950Y-86808307D01*
X155793958Y-86808307D01*
X155822421Y-86806067D01*
X155822426Y-86806066D01*
X155828831Y-86805562D01*
X155961502Y-86767018D01*
X155980988Y-86761357D01*
X155980990Y-86761356D01*
X155988601Y-86759145D01*
X156131807Y-86674453D01*
X156134489Y-86671771D01*
X156198861Y-86646498D01*
X156268484Y-86660400D01*
X156284312Y-86670572D01*
X156288193Y-86674453D01*
X156431399Y-86759145D01*
X156439010Y-86761356D01*
X156439012Y-86761357D01*
X156458498Y-86767018D01*
X156591169Y-86805562D01*
X156597574Y-86806066D01*
X156597579Y-86806067D01*
X156626042Y-86808307D01*
X156626050Y-86808307D01*
X156628498Y-86808500D01*
X157061502Y-86808500D01*
X157063950Y-86808307D01*
X157063958Y-86808307D01*
X157092421Y-86806067D01*
X157092426Y-86806066D01*
X157098831Y-86805562D01*
X157231502Y-86767018D01*
X157250988Y-86761357D01*
X157250990Y-86761356D01*
X157258601Y-86759145D01*
X157291363Y-86739769D01*
X157360178Y-86722311D01*
X157427509Y-86744828D01*
X157471978Y-86800173D01*
X157481500Y-86848224D01*
X157481500Y-86934406D01*
X157461498Y-87002527D01*
X157444595Y-87023501D01*
X155660051Y-88808044D01*
X155597739Y-88842070D01*
X155570956Y-88844949D01*
X153928043Y-88844949D01*
X153859922Y-88824947D01*
X153838948Y-88808044D01*
X151614500Y-86583595D01*
X151580474Y-86521283D01*
X151585539Y-86450467D01*
X151628086Y-86393632D01*
X151694606Y-86368821D01*
X151703595Y-86368500D01*
X152088934Y-86368500D01*
X152151116Y-86361745D01*
X152287505Y-86310615D01*
X152404061Y-86223261D01*
X152491415Y-86106705D01*
X152542545Y-85970316D01*
X152549300Y-85908134D01*
X152549300Y-84811866D01*
X152542545Y-84749684D01*
X152491415Y-84613295D01*
X152489064Y-84610158D01*
X152474300Y-84552450D01*
X152474300Y-84437644D01*
X152498362Y-84363586D01*
X152499625Y-84361848D01*
X152504040Y-84356944D01*
X152581953Y-84221995D01*
X152596223Y-84197279D01*
X152596224Y-84197278D01*
X152599527Y-84191556D01*
X152658542Y-84009928D01*
X152661277Y-83983912D01*
X152677814Y-83826565D01*
X152678504Y-83820000D01*
X152666269Y-83703593D01*
X152659232Y-83636635D01*
X152659232Y-83636633D01*
X152658542Y-83630072D01*
X152599527Y-83448444D01*
X152581677Y-83417526D01*
X152507341Y-83288774D01*
X152504040Y-83283056D01*
X152471645Y-83247077D01*
X152380675Y-83146045D01*
X152380674Y-83146044D01*
X152376253Y-83141134D01*
X152245444Y-83046095D01*
X152227094Y-83032763D01*
X152227093Y-83032762D01*
X152221752Y-83028882D01*
X152215724Y-83026198D01*
X152215722Y-83026197D01*
X152053319Y-82953891D01*
X152053318Y-82953891D01*
X152047288Y-82951206D01*
X151934721Y-82927279D01*
X151866944Y-82912872D01*
X151866939Y-82912872D01*
X151860487Y-82911500D01*
X151669513Y-82911500D01*
X151663061Y-82912872D01*
X151663056Y-82912872D01*
X151521284Y-82943007D01*
X151450493Y-82937605D01*
X151393861Y-82894788D01*
X151369367Y-82828150D01*
X151375254Y-82780824D01*
X151386502Y-82746206D01*
X151388542Y-82739928D01*
X151390259Y-82723598D01*
X151407814Y-82556565D01*
X151408504Y-82550000D01*
X151388542Y-82360072D01*
X151329527Y-82178444D01*
X151313812Y-82151224D01*
X151237341Y-82018774D01*
X151234040Y-82013056D01*
X151176639Y-81949305D01*
X151110675Y-81876045D01*
X151110674Y-81876044D01*
X151106253Y-81871134D01*
X150996019Y-81791044D01*
X150957094Y-81762763D01*
X150957093Y-81762762D01*
X150951752Y-81758882D01*
X150945724Y-81756198D01*
X150945722Y-81756197D01*
X150783319Y-81683891D01*
X150783318Y-81683891D01*
X150777288Y-81681206D01*
X150683888Y-81661353D01*
X150596944Y-81642872D01*
X150596939Y-81642872D01*
X150590487Y-81641500D01*
X150399513Y-81641500D01*
X150393061Y-81642872D01*
X150393056Y-81642872D01*
X150306112Y-81661353D01*
X150212712Y-81681206D01*
X150206682Y-81683891D01*
X150206681Y-81683891D01*
X150044278Y-81756197D01*
X150044276Y-81756198D01*
X150038248Y-81758882D01*
X150032907Y-81762762D01*
X150032906Y-81762763D01*
X149993981Y-81791044D01*
X149883747Y-81871134D01*
X149879326Y-81876044D01*
X149879325Y-81876045D01*
X149813362Y-81949305D01*
X149755960Y-82013056D01*
X149752659Y-82018774D01*
X149676189Y-82151224D01*
X149660473Y-82178444D01*
X149601458Y-82360072D01*
X149581496Y-82550000D01*
X149582186Y-82556565D01*
X149599742Y-82723598D01*
X149601458Y-82739928D01*
X149660473Y-82921556D01*
X149663776Y-82927278D01*
X149663777Y-82927279D01*
X149672858Y-82943007D01*
X149755960Y-83086944D01*
X149760378Y-83091851D01*
X149760379Y-83091852D01*
X149854136Y-83195980D01*
X149884854Y-83259987D01*
X149886500Y-83280290D01*
X149886500Y-84225500D01*
X149866498Y-84293621D01*
X149812842Y-84340114D01*
X149760500Y-84351500D01*
X149611466Y-84351500D01*
X149549284Y-84358255D01*
X149549155Y-84357068D01*
X149509645Y-84357068D01*
X149509516Y-84358255D01*
X149450731Y-84351869D01*
X149447334Y-84351500D01*
X148951066Y-84351500D01*
X148888884Y-84358255D01*
X148888755Y-84357068D01*
X148849245Y-84357068D01*
X148849116Y-84358255D01*
X148790331Y-84351869D01*
X148786934Y-84351500D01*
X148290666Y-84351500D01*
X148228484Y-84358255D01*
X148228355Y-84357068D01*
X148188845Y-84357068D01*
X148188716Y-84358255D01*
X148129931Y-84351869D01*
X148126534Y-84351500D01*
X147630266Y-84351500D01*
X147568084Y-84358255D01*
X147567955Y-84357068D01*
X147528445Y-84357068D01*
X147528316Y-84358255D01*
X147469531Y-84351869D01*
X147466134Y-84351500D01*
X147263972Y-84351500D01*
X147195851Y-84331498D01*
X147149358Y-84277842D01*
X147139254Y-84207568D01*
X147168748Y-84142988D01*
X147231361Y-84103793D01*
X147348600Y-84072379D01*
X147348602Y-84072378D01*
X147353910Y-84070956D01*
X147358892Y-84068633D01*
X147540577Y-83983912D01*
X147540580Y-83983910D01*
X147545558Y-83981589D01*
X147718776Y-83860301D01*
X147868301Y-83710776D01*
X147989589Y-83537558D01*
X148071400Y-83362115D01*
X148076633Y-83350892D01*
X148076634Y-83350891D01*
X148078956Y-83345910D01*
X148101093Y-83263296D01*
X148132262Y-83146970D01*
X148132262Y-83146968D01*
X148133686Y-83141655D01*
X148152116Y-82931000D01*
X148133686Y-82720345D01*
X148088042Y-82550000D01*
X148080379Y-82521400D01*
X148080378Y-82521398D01*
X148078956Y-82516090D01*
X147989589Y-82324442D01*
X147868301Y-82151224D01*
X147718776Y-82001699D01*
X147545558Y-81880411D01*
X147540580Y-81878090D01*
X147540577Y-81878088D01*
X147358892Y-81793367D01*
X147358891Y-81793366D01*
X147353910Y-81791044D01*
X147348602Y-81789622D01*
X147348600Y-81789621D01*
X147154970Y-81737738D01*
X147154968Y-81737738D01*
X147149655Y-81736314D01*
X146939000Y-81717884D01*
X146728345Y-81736314D01*
X146723032Y-81737738D01*
X146723030Y-81737738D01*
X146529400Y-81789621D01*
X146529398Y-81789622D01*
X146524090Y-81791044D01*
X146519109Y-81793366D01*
X146519108Y-81793367D01*
X146337423Y-81878088D01*
X146337420Y-81878090D01*
X146332442Y-81880411D01*
X146159224Y-82001699D01*
X146009699Y-82151224D01*
X145888411Y-82324442D01*
X145799044Y-82516090D01*
X145797622Y-82521398D01*
X145797621Y-82521400D01*
X145789958Y-82550000D01*
X145744314Y-82720345D01*
X145725884Y-82931000D01*
X145744314Y-83141655D01*
X145745738Y-83146968D01*
X145745738Y-83146970D01*
X145776908Y-83263296D01*
X145799044Y-83345910D01*
X145801366Y-83350891D01*
X145801367Y-83350892D01*
X145806601Y-83362115D01*
X145888411Y-83537558D01*
X146009699Y-83710776D01*
X146159224Y-83860301D01*
X146332442Y-83981589D01*
X146337420Y-83983910D01*
X146337423Y-83983912D01*
X146519108Y-84068633D01*
X146524090Y-84070956D01*
X146529398Y-84072378D01*
X146529400Y-84072379D01*
X146646639Y-84103793D01*
X146707262Y-84140745D01*
X146738283Y-84204606D01*
X146729855Y-84275100D01*
X146684652Y-84329847D01*
X146614028Y-84351500D01*
X146309466Y-84351500D01*
X146247284Y-84358255D01*
X146247155Y-84357068D01*
X146207645Y-84357068D01*
X146207516Y-84358255D01*
X146148731Y-84351869D01*
X146145334Y-84351500D01*
X145649066Y-84351500D01*
X145586884Y-84358255D01*
X145450495Y-84409385D01*
X145333939Y-84496739D01*
X145246585Y-84613295D01*
X145195455Y-84749684D01*
X145188700Y-84811866D01*
X145188700Y-85908134D01*
X145195455Y-85970316D01*
X145246585Y-86106705D01*
X145333939Y-86223261D01*
X145450495Y-86310615D01*
X145454524Y-86312125D01*
X145503008Y-86360718D01*
X145518022Y-86430109D01*
X145493137Y-86496602D01*
X145436253Y-86539085D01*
X145392353Y-86546980D01*
X144784223Y-86546980D01*
X144716102Y-86526978D01*
X144669609Y-86473322D01*
X144659505Y-86403048D01*
X144688999Y-86338468D01*
X144695050Y-86331962D01*
X144753739Y-86273171D01*
X144762751Y-86261760D01*
X144847816Y-86123757D01*
X144853963Y-86110576D01*
X144905138Y-85956290D01*
X144908005Y-85942914D01*
X144917672Y-85848562D01*
X144918000Y-85842146D01*
X144918000Y-85654615D01*
X144913525Y-85639376D01*
X144912135Y-85638171D01*
X144904452Y-85636500D01*
X142120116Y-85636500D01*
X142104877Y-85640975D01*
X142103672Y-85642365D01*
X142102001Y-85650048D01*
X142102001Y-85651906D01*
X142100441Y-85657217D01*
X142099122Y-85663283D01*
X142098688Y-85663189D01*
X142081999Y-85720027D01*
X142028343Y-85766520D01*
X141958069Y-85776624D01*
X141893489Y-85747130D01*
X141886906Y-85741001D01*
X141686218Y-85540313D01*
X141652192Y-85478001D01*
X141654755Y-85414589D01*
X141665865Y-85378022D01*
X141667370Y-85373069D01*
X141696529Y-85151590D01*
X141697134Y-85126829D01*
X141697536Y-85110385D01*
X142102000Y-85110385D01*
X142106475Y-85125624D01*
X142107865Y-85126829D01*
X142115548Y-85128500D01*
X143237885Y-85128500D01*
X143253124Y-85124025D01*
X143254329Y-85122635D01*
X143256000Y-85114952D01*
X143256000Y-85110385D01*
X143764000Y-85110385D01*
X143768475Y-85125624D01*
X143769865Y-85126829D01*
X143777548Y-85128500D01*
X144899884Y-85128500D01*
X144915123Y-85124025D01*
X144916328Y-85122635D01*
X144917999Y-85114952D01*
X144917999Y-84922905D01*
X144917662Y-84916386D01*
X144907743Y-84820794D01*
X144904851Y-84807400D01*
X144853412Y-84653216D01*
X144847239Y-84640038D01*
X144761937Y-84502193D01*
X144752901Y-84490792D01*
X144638171Y-84376261D01*
X144626760Y-84367249D01*
X144488757Y-84282184D01*
X144475576Y-84276037D01*
X144321290Y-84224862D01*
X144307914Y-84221995D01*
X144213562Y-84212328D01*
X144207145Y-84212000D01*
X143782115Y-84212000D01*
X143766876Y-84216475D01*
X143765671Y-84217865D01*
X143764000Y-84225548D01*
X143764000Y-85110385D01*
X143256000Y-85110385D01*
X143256000Y-84230116D01*
X143251525Y-84214877D01*
X143250135Y-84213672D01*
X143242452Y-84212001D01*
X142812905Y-84212001D01*
X142806386Y-84212338D01*
X142710794Y-84222257D01*
X142697400Y-84225149D01*
X142543216Y-84276588D01*
X142530038Y-84282761D01*
X142392193Y-84368063D01*
X142380792Y-84377099D01*
X142266261Y-84491829D01*
X142257249Y-84503240D01*
X142172184Y-84641243D01*
X142166037Y-84654424D01*
X142114862Y-84808710D01*
X142111995Y-84822086D01*
X142102328Y-84916438D01*
X142102000Y-84922855D01*
X142102000Y-85110385D01*
X141697536Y-85110385D01*
X141698074Y-85088365D01*
X141698074Y-85088361D01*
X141698156Y-85085000D01*
X141679852Y-84862361D01*
X141625431Y-84645702D01*
X141536354Y-84440840D01*
X141475109Y-84346169D01*
X141417822Y-84257617D01*
X141417820Y-84257614D01*
X141415014Y-84253277D01*
X141264670Y-84088051D01*
X141260619Y-84084852D01*
X141260615Y-84084848D01*
X141093414Y-83952800D01*
X141093410Y-83952798D01*
X141089359Y-83949598D01*
X141048053Y-83926796D01*
X140998084Y-83876364D01*
X140983312Y-83806921D01*
X141008428Y-83740516D01*
X141035780Y-83713909D01*
X141144114Y-83636635D01*
X141214860Y-83586173D01*
X141259125Y-83542063D01*
X141369435Y-83432137D01*
X141373096Y-83428489D01*
X141503453Y-83247077D01*
X141512454Y-83228866D01*
X141600136Y-83051453D01*
X141600137Y-83051451D01*
X141602430Y-83046811D01*
X141658187Y-82863293D01*
X141665865Y-82838023D01*
X141665865Y-82838021D01*
X141667370Y-82833069D01*
X141696529Y-82611590D01*
X141697676Y-82564655D01*
X141719336Y-82497043D01*
X141774111Y-82451875D01*
X141844611Y-82443491D01*
X141912733Y-82478638D01*
X142064595Y-82630500D01*
X142098621Y-82692812D01*
X142100889Y-82713911D01*
X142101332Y-82713888D01*
X142101500Y-82717136D01*
X142101500Y-82720400D01*
X142101837Y-82723646D01*
X142101837Y-82723650D01*
X142111497Y-82816745D01*
X142112474Y-82826166D01*
X142114655Y-82832702D01*
X142114655Y-82832704D01*
X142141401Y-82912872D01*
X142168450Y-82993946D01*
X142261522Y-83144348D01*
X142386697Y-83269305D01*
X142392927Y-83273145D01*
X142392928Y-83273146D01*
X142530090Y-83357694D01*
X142537262Y-83362115D01*
X142617005Y-83388564D01*
X142698611Y-83415632D01*
X142698613Y-83415632D01*
X142705139Y-83417797D01*
X142711975Y-83418497D01*
X142711978Y-83418498D01*
X142755031Y-83422909D01*
X142809600Y-83428500D01*
X144210400Y-83428500D01*
X144213646Y-83428163D01*
X144213650Y-83428163D01*
X144309308Y-83418238D01*
X144309312Y-83418237D01*
X144316166Y-83417526D01*
X144322702Y-83415345D01*
X144322704Y-83415345D01*
X144454806Y-83371272D01*
X144483946Y-83361550D01*
X144634348Y-83268478D01*
X144671895Y-83230866D01*
X144754134Y-83148483D01*
X144759305Y-83143303D01*
X144791020Y-83091852D01*
X144848275Y-82998968D01*
X144848276Y-82998966D01*
X144852115Y-82992738D01*
X144892164Y-82871994D01*
X144905632Y-82831389D01*
X144905632Y-82831387D01*
X144907797Y-82824861D01*
X144909265Y-82810539D01*
X144917033Y-82734715D01*
X144918500Y-82720400D01*
X144918500Y-81794600D01*
X144918131Y-81791044D01*
X144908238Y-81695692D01*
X144908237Y-81695688D01*
X144907526Y-81688834D01*
X144904638Y-81680176D01*
X144853868Y-81528002D01*
X144851550Y-81521054D01*
X144758478Y-81370652D01*
X144633303Y-81245695D01*
X144580832Y-81213351D01*
X144488968Y-81156725D01*
X144488966Y-81156724D01*
X144482738Y-81152885D01*
X144322254Y-81099655D01*
X144321389Y-81099368D01*
X144321387Y-81099368D01*
X144314861Y-81097203D01*
X144308025Y-81096503D01*
X144308022Y-81096502D01*
X144264969Y-81092091D01*
X144210400Y-81086500D01*
X142809600Y-81086500D01*
X142806354Y-81086837D01*
X142806350Y-81086837D01*
X142710692Y-81096762D01*
X142710688Y-81096763D01*
X142703834Y-81097474D01*
X142697298Y-81099655D01*
X142697296Y-81099655D01*
X142567982Y-81142798D01*
X142536054Y-81153450D01*
X142524102Y-81160846D01*
X142455651Y-81179685D01*
X142387881Y-81158525D01*
X142368702Y-81142798D01*
X142035993Y-80810088D01*
X141755574Y-80529669D01*
X145652001Y-80529669D01*
X145652371Y-80536490D01*
X145657895Y-80587352D01*
X145661521Y-80602604D01*
X145706676Y-80723054D01*
X145715214Y-80738649D01*
X145791715Y-80840724D01*
X145804276Y-80853285D01*
X145906351Y-80929786D01*
X145921946Y-80938324D01*
X146042394Y-80983478D01*
X146057649Y-80987105D01*
X146108514Y-80992631D01*
X146115328Y-80993000D01*
X146412885Y-80993000D01*
X146428124Y-80988525D01*
X146429329Y-80987135D01*
X146431000Y-80979452D01*
X146431000Y-80007115D01*
X146426525Y-79991876D01*
X146425135Y-79990671D01*
X146417452Y-79989000D01*
X145670116Y-79989000D01*
X145654877Y-79993475D01*
X145653672Y-79994865D01*
X145652001Y-80002548D01*
X145652001Y-80529669D01*
X141755574Y-80529669D01*
X141686217Y-80460312D01*
X141652192Y-80398000D01*
X141654755Y-80334590D01*
X141667370Y-80293069D01*
X141696529Y-80071590D01*
X141696611Y-80068240D01*
X141698074Y-80008365D01*
X141698074Y-80008361D01*
X141698156Y-80005000D01*
X141679852Y-79782361D01*
X141651821Y-79670765D01*
X141654625Y-79599823D01*
X141684930Y-79550974D01*
X141773019Y-79462885D01*
X145652000Y-79462885D01*
X145656475Y-79478124D01*
X145657865Y-79479329D01*
X145665548Y-79481000D01*
X146412885Y-79481000D01*
X146428124Y-79476525D01*
X146429329Y-79475135D01*
X146431000Y-79467452D01*
X146431000Y-78495116D01*
X146426525Y-78479877D01*
X146425135Y-78478672D01*
X146417452Y-78477001D01*
X146115331Y-78477001D01*
X146108510Y-78477371D01*
X146057648Y-78482895D01*
X146042396Y-78486521D01*
X145921946Y-78531676D01*
X145906351Y-78540214D01*
X145804276Y-78616715D01*
X145791715Y-78629276D01*
X145715214Y-78731351D01*
X145706676Y-78746946D01*
X145661522Y-78867394D01*
X145657895Y-78882649D01*
X145652369Y-78933514D01*
X145652000Y-78940328D01*
X145652000Y-79462885D01*
X141773019Y-79462885D01*
X143740019Y-77495885D01*
X143802331Y-77461859D01*
X143829114Y-77458980D01*
X152185500Y-77458980D01*
X152253621Y-77478982D01*
G37*
%TD.AperFunction*%
%TD*%
M02*
