%TF.GenerationSoftware,KiCad,Pcbnew,(6.0.1)*%
%TF.CreationDate,2022-02-07T09:31:49-05:00*%
%TF.ProjectId,hitsmodule,68697473-6d6f-4647-956c-652e6b696361,rev?*%
%TF.SameCoordinates,Original*%
%TF.FileFunction,Copper,L2,Bot*%
%TF.FilePolarity,Positive*%
%FSLAX46Y46*%
G04 Gerber Fmt 4.6, Leading zero omitted, Abs format (unit mm)*
G04 Created by KiCad (PCBNEW (6.0.1)) date 2022-02-07 09:31:49*
%MOMM*%
%LPD*%
G01*
G04 APERTURE LIST*
%TA.AperFunction,ComponentPad*%
%ADD10R,1.700000X3.390000*%
%TD*%
%TA.AperFunction,ComponentPad*%
%ADD11C,1.400000*%
%TD*%
%TA.AperFunction,ComponentPad*%
%ADD12O,1.400000X1.400000*%
%TD*%
%TA.AperFunction,ComponentPad*%
%ADD13R,1.700000X1.700000*%
%TD*%
%TA.AperFunction,ComponentPad*%
%ADD14O,1.700000X1.700000*%
%TD*%
%TA.AperFunction,ComponentPad*%
%ADD15R,1.050000X1.500000*%
%TD*%
%TA.AperFunction,ComponentPad*%
%ADD16O,1.050000X1.500000*%
%TD*%
%TA.AperFunction,ViaPad*%
%ADD17C,0.800000*%
%TD*%
%TA.AperFunction,Conductor*%
%ADD18C,0.250000*%
%TD*%
G04 APERTURE END LIST*
D10*
%TO.P,J2,6,Pin_6*%
%TO.N,OUT*%
X147320000Y-98531500D03*
%TO.P,J2,5,Pin_5*%
%TO.N,OKY1*%
X149860000Y-98531500D03*
%TO.P,J2,4,Pin_4*%
%TO.N,OKY2*%
X152400000Y-98531500D03*
%TO.P,J2,3,Pin_3*%
%TO.N,IO1*%
X154940000Y-98531500D03*
%TO.P,J2,2,Pin_2*%
%TO.N,GND*%
X157480000Y-98531500D03*
%TO.P,J2,1,Pin_1*%
%TO.N,+3V3*%
X160020000Y-98531500D03*
%TD*%
D11*
%TO.P,R1,1*%
%TO.N,OUT*%
X146939000Y-82931000D03*
D12*
%TO.P,R1,2*%
%TO.N,Net-(Q1-Pad2)*%
X154559000Y-82931000D03*
%TD*%
D13*
%TO.P,J1,1,Pin_1*%
%TO.N,GND*%
X140335000Y-90165000D03*
D14*
%TO.P,J1,2,Pin_2*%
%TO.N,nRST*%
X140335000Y-87625000D03*
%TO.P,J1,3,Pin_3*%
%TO.N,ICE_CLK*%
X140335000Y-85085000D03*
%TO.P,J1,4,Pin_4*%
%TO.N,ICE_DAT*%
X140335000Y-82545000D03*
%TO.P,J1,5,Pin_5*%
%TO.N,+3V3*%
X140335000Y-80005000D03*
%TD*%
D15*
%TO.P,Q1,1,E*%
%TO.N,GND*%
X146685000Y-79735000D03*
D16*
%TO.P,Q1,2,B*%
%TO.N,Net-(Q1-Pad2)*%
X147955000Y-79735000D03*
%TO.P,Q1,3,C*%
%TO.N,TOUT*%
X149225000Y-79735000D03*
%TD*%
D17*
%TO.N,GND*%
X148590000Y-88900000D03*
X159385000Y-94615000D03*
%TO.N,IO1*%
X150495000Y-82550000D03*
%TO.N,OUT*%
X147320000Y-94615000D03*
X151765000Y-83820000D03*
%TO.N,MISO*%
X156845000Y-94615000D03*
X147852342Y-86811551D03*
%TD*%
D18*
%TO.N,IO1*%
X153670000Y-83820000D02*
X153670000Y-90170000D01*
X153670000Y-90170000D02*
X157569511Y-94069511D01*
X157569511Y-95160489D02*
X154940000Y-97790000D01*
X152400000Y-82550000D02*
X153670000Y-83820000D01*
X150495000Y-82550000D02*
X152400000Y-82550000D01*
X157569511Y-94069511D02*
X157569511Y-95160489D01*
%TO.N,OUT*%
X147127831Y-94422831D02*
X147320000Y-94615000D01*
X149819279Y-83820000D02*
X147828000Y-83820000D01*
X149819279Y-83820000D02*
X147127831Y-86511448D01*
X151765000Y-83820000D02*
X150495000Y-83820000D01*
X151765000Y-83820000D02*
X149819279Y-83820000D01*
X147127831Y-86511448D02*
X147127831Y-94422831D01*
X147828000Y-83820000D02*
X146939000Y-82931000D01*
X150495000Y-83820000D02*
X149910000Y-83820000D01*
%TO.N,MISO*%
X147852342Y-86811551D02*
X149041551Y-86811551D01*
X149041551Y-86811551D02*
X156845000Y-94615000D01*
%TO.N,Net-(Q1-Pad2)*%
X152437520Y-80809520D02*
X148373520Y-80809520D01*
X154559000Y-82931000D02*
X152437520Y-80809520D01*
X147955000Y-80391000D02*
X147955000Y-79735000D01*
X148373520Y-80809520D02*
X147955000Y-80391000D01*
%TD*%
%TA.AperFunction,Conductor*%
%TO.N,GND*%
G36*
X161359121Y-76728002D02*
G01*
X161405614Y-76781658D01*
X161417000Y-76834000D01*
X161417000Y-96359053D01*
X161396998Y-96427174D01*
X161343342Y-96473667D01*
X161273068Y-96483771D01*
X161215435Y-96459879D01*
X161161557Y-96419500D01*
X161116705Y-96385885D01*
X160980316Y-96334755D01*
X160918134Y-96328000D01*
X159121866Y-96328000D01*
X159059684Y-96334755D01*
X158923295Y-96385885D01*
X158878443Y-96419500D01*
X158825148Y-96459442D01*
X158758642Y-96484290D01*
X158689259Y-96469237D01*
X158674018Y-96459442D01*
X158583649Y-96391714D01*
X158568054Y-96383176D01*
X158447606Y-96338022D01*
X158432351Y-96334395D01*
X158381486Y-96328869D01*
X158374672Y-96328500D01*
X157601594Y-96328501D01*
X157533473Y-96308499D01*
X157486980Y-96254843D01*
X157476876Y-96184569D01*
X157506369Y-96119989D01*
X157512499Y-96113406D01*
X157961764Y-95664141D01*
X157970050Y-95656601D01*
X157976529Y-95652489D01*
X158023155Y-95602837D01*
X158025909Y-95599996D01*
X158045646Y-95580259D01*
X158048126Y-95577062D01*
X158055831Y-95568040D01*
X158080670Y-95541589D01*
X158086097Y-95535810D01*
X158089916Y-95528864D01*
X158089918Y-95528861D01*
X158095859Y-95518055D01*
X158106710Y-95501536D01*
X158114269Y-95491790D01*
X158119125Y-95485530D01*
X158122270Y-95478261D01*
X158122273Y-95478257D01*
X158136685Y-95444952D01*
X158141902Y-95434302D01*
X158163206Y-95395549D01*
X158168244Y-95375926D01*
X158174648Y-95357223D01*
X158179544Y-95345909D01*
X158179544Y-95345908D01*
X158182692Y-95338634D01*
X158183931Y-95330811D01*
X158183934Y-95330801D01*
X158189610Y-95294965D01*
X158192016Y-95283345D01*
X158201039Y-95248200D01*
X158201039Y-95248199D01*
X158203011Y-95240519D01*
X158203011Y-95220265D01*
X158204562Y-95200554D01*
X158206491Y-95188375D01*
X158207731Y-95180546D01*
X158203570Y-95136527D01*
X158203011Y-95124670D01*
X158203011Y-94148274D01*
X158203538Y-94137090D01*
X158205212Y-94129602D01*
X158203073Y-94061543D01*
X158203011Y-94057586D01*
X158203011Y-94029655D01*
X158202505Y-94025649D01*
X158201572Y-94013803D01*
X158200784Y-93988702D01*
X158200184Y-93969621D01*
X158194533Y-93950169D01*
X158190525Y-93930817D01*
X158188978Y-93918574D01*
X158187985Y-93910714D01*
X158173327Y-93873691D01*
X158171711Y-93869608D01*
X158167866Y-93858381D01*
X158161350Y-93835955D01*
X158155529Y-93815918D01*
X158151495Y-93809096D01*
X158151492Y-93809090D01*
X158145217Y-93798479D01*
X158136521Y-93780729D01*
X158131983Y-93769267D01*
X158131980Y-93769262D01*
X158129063Y-93761894D01*
X158103084Y-93726136D01*
X158096568Y-93716218D01*
X158078086Y-93684968D01*
X158074053Y-93678148D01*
X158059729Y-93663824D01*
X158046887Y-93648789D01*
X158034983Y-93632404D01*
X158000917Y-93604222D01*
X157992138Y-93596233D01*
X154340405Y-89944500D01*
X154306379Y-89882188D01*
X154303500Y-89855405D01*
X154303500Y-84259268D01*
X154323502Y-84191147D01*
X154377158Y-84144654D01*
X154440482Y-84133747D01*
X154559000Y-84144116D01*
X154769655Y-84125686D01*
X154774968Y-84124262D01*
X154774970Y-84124262D01*
X154968600Y-84072379D01*
X154968602Y-84072378D01*
X154973910Y-84070956D01*
X155104785Y-84009928D01*
X155160577Y-83983912D01*
X155160580Y-83983910D01*
X155165558Y-83981589D01*
X155338776Y-83860301D01*
X155488301Y-83710776D01*
X155609589Y-83537558D01*
X155698956Y-83345910D01*
X155707986Y-83312212D01*
X155752262Y-83146970D01*
X155752262Y-83146968D01*
X155753686Y-83141655D01*
X155772116Y-82931000D01*
X155753686Y-82720345D01*
X155707604Y-82548365D01*
X155700379Y-82521400D01*
X155700378Y-82521398D01*
X155698956Y-82516090D01*
X155609589Y-82324442D01*
X155488301Y-82151224D01*
X155338776Y-82001699D01*
X155165558Y-81880411D01*
X155160580Y-81878090D01*
X155160577Y-81878088D01*
X154978892Y-81793367D01*
X154978891Y-81793366D01*
X154973910Y-81791044D01*
X154968602Y-81789622D01*
X154968600Y-81789621D01*
X154774970Y-81737738D01*
X154774968Y-81737738D01*
X154769655Y-81736314D01*
X154559000Y-81717884D01*
X154553525Y-81718363D01*
X154353816Y-81735835D01*
X154353812Y-81735836D01*
X154348345Y-81736314D01*
X154343039Y-81737736D01*
X154338439Y-81738547D01*
X154267879Y-81730679D01*
X154227462Y-81703557D01*
X152941172Y-80417267D01*
X152933632Y-80408981D01*
X152929520Y-80402502D01*
X152879868Y-80355876D01*
X152877027Y-80353122D01*
X152857290Y-80333385D01*
X152854093Y-80330905D01*
X152845071Y-80323200D01*
X152818620Y-80298361D01*
X152812841Y-80292934D01*
X152805895Y-80289115D01*
X152805892Y-80289113D01*
X152795086Y-80283172D01*
X152778567Y-80272321D01*
X152778103Y-80271961D01*
X152762561Y-80259906D01*
X152755292Y-80256761D01*
X152755288Y-80256758D01*
X152721983Y-80242346D01*
X152711333Y-80237129D01*
X152672580Y-80215825D01*
X152652957Y-80210787D01*
X152634254Y-80204383D01*
X152622940Y-80199487D01*
X152622939Y-80199487D01*
X152615665Y-80196339D01*
X152607842Y-80195100D01*
X152607832Y-80195097D01*
X152571996Y-80189421D01*
X152560376Y-80187015D01*
X152525231Y-80177992D01*
X152525230Y-80177992D01*
X152517550Y-80176020D01*
X152497296Y-80176020D01*
X152477585Y-80174469D01*
X152465406Y-80172540D01*
X152457577Y-80171300D01*
X152449685Y-80172046D01*
X152413559Y-80175461D01*
X152401701Y-80176020D01*
X150381719Y-80176020D01*
X150313598Y-80156018D01*
X150267105Y-80102362D01*
X150256504Y-80035973D01*
X150258108Y-80021678D01*
X150258108Y-80021677D01*
X150258500Y-80018183D01*
X150258500Y-79458996D01*
X150243723Y-79308287D01*
X150185142Y-79114258D01*
X150089990Y-78935302D01*
X149961890Y-78778237D01*
X149944846Y-78764137D01*
X149810472Y-78652973D01*
X149810469Y-78652971D01*
X149805722Y-78649044D01*
X149627435Y-78552644D01*
X149530628Y-78522677D01*
X149439707Y-78494532D01*
X149439704Y-78494531D01*
X149433820Y-78492710D01*
X149427695Y-78492066D01*
X149427694Y-78492066D01*
X149238378Y-78472168D01*
X149238377Y-78472168D01*
X149232250Y-78471524D01*
X149153709Y-78478672D01*
X149036543Y-78489335D01*
X149036540Y-78489336D01*
X149030404Y-78489894D01*
X149024498Y-78491632D01*
X149024494Y-78491633D01*
X148888442Y-78531676D01*
X148835971Y-78547119D01*
X148830514Y-78549972D01*
X148830511Y-78549973D01*
X148746163Y-78594069D01*
X148656540Y-78640923D01*
X148656538Y-78640923D01*
X148656355Y-78641019D01*
X148656337Y-78640984D01*
X148590559Y-78660889D01*
X148529591Y-78645729D01*
X148520815Y-78640984D01*
X148357435Y-78552644D01*
X148260628Y-78522677D01*
X148169707Y-78494532D01*
X148169704Y-78494531D01*
X148163820Y-78492710D01*
X148157695Y-78492066D01*
X148157694Y-78492066D01*
X147968378Y-78472168D01*
X147968377Y-78472168D01*
X147962250Y-78471524D01*
X147883709Y-78478672D01*
X147766543Y-78489335D01*
X147766540Y-78489336D01*
X147760404Y-78489894D01*
X147754498Y-78491632D01*
X147754494Y-78491633D01*
X147663188Y-78518506D01*
X147565971Y-78547119D01*
X147565771Y-78546441D01*
X147499727Y-78552956D01*
X147462677Y-78539680D01*
X147448063Y-78531679D01*
X147327606Y-78486522D01*
X147312351Y-78482895D01*
X147261486Y-78477369D01*
X147254672Y-78477000D01*
X146957115Y-78477000D01*
X146941876Y-78481475D01*
X146940671Y-78482865D01*
X146939000Y-78490548D01*
X146939000Y-79288758D01*
X146938215Y-79302803D01*
X146921500Y-79451817D01*
X146921500Y-80011004D01*
X146936277Y-80161713D01*
X146936968Y-80164002D01*
X146939000Y-80184724D01*
X146939000Y-80974884D01*
X146943475Y-80990123D01*
X146944865Y-80991328D01*
X146952548Y-80992999D01*
X147254669Y-80992999D01*
X147261490Y-80992629D01*
X147312352Y-80987105D01*
X147327604Y-80983479D01*
X147448056Y-80938323D01*
X147463466Y-80929886D01*
X147532823Y-80914716D01*
X147561238Y-80920041D01*
X147570412Y-80922881D01*
X147622246Y-80954150D01*
X147869863Y-81201767D01*
X147877407Y-81210057D01*
X147881520Y-81216538D01*
X147887297Y-81221963D01*
X147931187Y-81263178D01*
X147934029Y-81265933D01*
X147953751Y-81285655D01*
X147956875Y-81288078D01*
X147956879Y-81288082D01*
X147956944Y-81288132D01*
X147965965Y-81295837D01*
X147998199Y-81326106D01*
X148005147Y-81329925D01*
X148005149Y-81329927D01*
X148015952Y-81335866D01*
X148032479Y-81346722D01*
X148042218Y-81354277D01*
X148042220Y-81354278D01*
X148048480Y-81359134D01*
X148089060Y-81376694D01*
X148099708Y-81381911D01*
X148112818Y-81389118D01*
X148138460Y-81403215D01*
X148146136Y-81405186D01*
X148146139Y-81405187D01*
X148158082Y-81408253D01*
X148176787Y-81414657D01*
X148195375Y-81422701D01*
X148203198Y-81423940D01*
X148203208Y-81423943D01*
X148239044Y-81429619D01*
X148250664Y-81432025D01*
X148285809Y-81441048D01*
X148293490Y-81443020D01*
X148313744Y-81443020D01*
X148333454Y-81444571D01*
X148353463Y-81447740D01*
X148361355Y-81446994D01*
X148397481Y-81443579D01*
X148409339Y-81443020D01*
X150154902Y-81443020D01*
X150223023Y-81463022D01*
X150269516Y-81516678D01*
X150279620Y-81586952D01*
X150250126Y-81651532D01*
X150206151Y-81684127D01*
X150044278Y-81756197D01*
X150044276Y-81756198D01*
X150038248Y-81758882D01*
X150032907Y-81762762D01*
X150032906Y-81762763D01*
X149993981Y-81791044D01*
X149883747Y-81871134D01*
X149879326Y-81876044D01*
X149879325Y-81876045D01*
X149831669Y-81928973D01*
X149755960Y-82013056D01*
X149752659Y-82018774D01*
X149676189Y-82151224D01*
X149660473Y-82178444D01*
X149601458Y-82360072D01*
X149581496Y-82550000D01*
X149601458Y-82739928D01*
X149660473Y-82921556D01*
X149663776Y-82927278D01*
X149663777Y-82927279D01*
X149704319Y-82997500D01*
X149721057Y-83066496D01*
X149697836Y-83133587D01*
X149642029Y-83177474D01*
X149595200Y-83186500D01*
X148267268Y-83186500D01*
X148199147Y-83166498D01*
X148152654Y-83112842D01*
X148141747Y-83049518D01*
X148151637Y-82936475D01*
X148152116Y-82931000D01*
X148133686Y-82720345D01*
X148087604Y-82548365D01*
X148080379Y-82521400D01*
X148080378Y-82521398D01*
X148078956Y-82516090D01*
X147989589Y-82324442D01*
X147868301Y-82151224D01*
X147718776Y-82001699D01*
X147545558Y-81880411D01*
X147540580Y-81878090D01*
X147540577Y-81878088D01*
X147358892Y-81793367D01*
X147358891Y-81793366D01*
X147353910Y-81791044D01*
X147348602Y-81789622D01*
X147348600Y-81789621D01*
X147154970Y-81737738D01*
X147154968Y-81737738D01*
X147149655Y-81736314D01*
X146939000Y-81717884D01*
X146728345Y-81736314D01*
X146723032Y-81737738D01*
X146723030Y-81737738D01*
X146529400Y-81789621D01*
X146529398Y-81789622D01*
X146524090Y-81791044D01*
X146519109Y-81793366D01*
X146519108Y-81793367D01*
X146337423Y-81878088D01*
X146337420Y-81878090D01*
X146332442Y-81880411D01*
X146159224Y-82001699D01*
X146009699Y-82151224D01*
X145888411Y-82324442D01*
X145799044Y-82516090D01*
X145797622Y-82521398D01*
X145797621Y-82521400D01*
X145790396Y-82548365D01*
X145744314Y-82720345D01*
X145725884Y-82931000D01*
X145744314Y-83141655D01*
X145745738Y-83146968D01*
X145745738Y-83146970D01*
X145790015Y-83312212D01*
X145799044Y-83345910D01*
X145888411Y-83537558D01*
X146009699Y-83710776D01*
X146159224Y-83860301D01*
X146332442Y-83981589D01*
X146337420Y-83983910D01*
X146337423Y-83983912D01*
X146393215Y-84009928D01*
X146524090Y-84070956D01*
X146529398Y-84072378D01*
X146529400Y-84072379D01*
X146723030Y-84124262D01*
X146723032Y-84124262D01*
X146728345Y-84125686D01*
X146939000Y-84144116D01*
X146944475Y-84143637D01*
X147144184Y-84126165D01*
X147144188Y-84126164D01*
X147149655Y-84125686D01*
X147154961Y-84124264D01*
X147159561Y-84123453D01*
X147230121Y-84131321D01*
X147270538Y-84158443D01*
X147324348Y-84212253D01*
X147331888Y-84220539D01*
X147336000Y-84227018D01*
X147341777Y-84232443D01*
X147385651Y-84273643D01*
X147388493Y-84276398D01*
X147408230Y-84296135D01*
X147411427Y-84298615D01*
X147420447Y-84306318D01*
X147452679Y-84336586D01*
X147459625Y-84340405D01*
X147459628Y-84340407D01*
X147470434Y-84346348D01*
X147486953Y-84357199D01*
X147502959Y-84369614D01*
X147510228Y-84372759D01*
X147510232Y-84372762D01*
X147543537Y-84387174D01*
X147554187Y-84392391D01*
X147592940Y-84413695D01*
X147600615Y-84415666D01*
X147600616Y-84415666D01*
X147612562Y-84418733D01*
X147631266Y-84425137D01*
X147642019Y-84429790D01*
X147649855Y-84433181D01*
X147657678Y-84434420D01*
X147657688Y-84434423D01*
X147693524Y-84440099D01*
X147705144Y-84442505D01*
X147740289Y-84451528D01*
X147747970Y-84453500D01*
X147768224Y-84453500D01*
X147787934Y-84455051D01*
X147807943Y-84458220D01*
X147815835Y-84457474D01*
X147851961Y-84454059D01*
X147863819Y-84453500D01*
X147985684Y-84453500D01*
X148053805Y-84473502D01*
X148100298Y-84527158D01*
X148110402Y-84597432D01*
X148080908Y-84662012D01*
X148074779Y-84668595D01*
X146735578Y-86007796D01*
X146727292Y-86015336D01*
X146720813Y-86019448D01*
X146715388Y-86025225D01*
X146674188Y-86069099D01*
X146671433Y-86071941D01*
X146651696Y-86091678D01*
X146649216Y-86094875D01*
X146641513Y-86103895D01*
X146611245Y-86136127D01*
X146607426Y-86143073D01*
X146607424Y-86143076D01*
X146601483Y-86153882D01*
X146590632Y-86170401D01*
X146578217Y-86186407D01*
X146575072Y-86193676D01*
X146575069Y-86193680D01*
X146560657Y-86226985D01*
X146555440Y-86237635D01*
X146534136Y-86276388D01*
X146532165Y-86284063D01*
X146532165Y-86284064D01*
X146529098Y-86296010D01*
X146522694Y-86314714D01*
X146514650Y-86333303D01*
X146513411Y-86341126D01*
X146513408Y-86341136D01*
X146507732Y-86376972D01*
X146505326Y-86388592D01*
X146499697Y-86410519D01*
X146494331Y-86431418D01*
X146494331Y-86451672D01*
X146492780Y-86471382D01*
X146489611Y-86491391D01*
X146490357Y-86499283D01*
X146493772Y-86535409D01*
X146494331Y-86547267D01*
X146494331Y-94198464D01*
X146484815Y-94243230D01*
X146485473Y-94243444D01*
X146426458Y-94425072D01*
X146425768Y-94431633D01*
X146425768Y-94431635D01*
X146419887Y-94487587D01*
X146406496Y-94615000D01*
X146426458Y-94804928D01*
X146485473Y-94986556D01*
X146580960Y-95151944D01*
X146585378Y-95156851D01*
X146585379Y-95156852D01*
X146633546Y-95210347D01*
X146708747Y-95293866D01*
X146863248Y-95406118D01*
X146869276Y-95408802D01*
X146869278Y-95408803D01*
X147031681Y-95481109D01*
X147037712Y-95483794D01*
X147121181Y-95501536D01*
X147218056Y-95522128D01*
X147218061Y-95522128D01*
X147224513Y-95523500D01*
X147415487Y-95523500D01*
X147421939Y-95522128D01*
X147421944Y-95522128D01*
X147518819Y-95501536D01*
X147602288Y-95483794D01*
X147608319Y-95481109D01*
X147770722Y-95408803D01*
X147770724Y-95408802D01*
X147776752Y-95406118D01*
X147931253Y-95293866D01*
X148006454Y-95210347D01*
X148054621Y-95156852D01*
X148054622Y-95156851D01*
X148059040Y-95151944D01*
X148154527Y-94986556D01*
X148213542Y-94804928D01*
X148233504Y-94615000D01*
X148220113Y-94487587D01*
X148214232Y-94431635D01*
X148214232Y-94431633D01*
X148213542Y-94425072D01*
X148154527Y-94243444D01*
X148059040Y-94078056D01*
X148001187Y-94013803D01*
X147935675Y-93941045D01*
X147935674Y-93941044D01*
X147931253Y-93936134D01*
X147813270Y-93850414D01*
X147769916Y-93794192D01*
X147761331Y-93748478D01*
X147761331Y-87846051D01*
X147781333Y-87777930D01*
X147834989Y-87731437D01*
X147887331Y-87720051D01*
X147947829Y-87720051D01*
X147954281Y-87718679D01*
X147954286Y-87718679D01*
X148041230Y-87700198D01*
X148134630Y-87680345D01*
X148266471Y-87621646D01*
X148303064Y-87605354D01*
X148303066Y-87605353D01*
X148309094Y-87602669D01*
X148324199Y-87591695D01*
X148458256Y-87494296D01*
X148463595Y-87490417D01*
X148468010Y-87485514D01*
X148472922Y-87481091D01*
X148474047Y-87482340D01*
X148527356Y-87449500D01*
X148560542Y-87445051D01*
X148726957Y-87445051D01*
X148795078Y-87465053D01*
X148816052Y-87481956D01*
X155897878Y-94563782D01*
X155931904Y-94626094D01*
X155934092Y-94639703D01*
X155951458Y-94804928D01*
X156010473Y-94986556D01*
X156105960Y-95151944D01*
X156110378Y-95156851D01*
X156110379Y-95156852D01*
X156158546Y-95210347D01*
X156233747Y-95293866D01*
X156291909Y-95336123D01*
X156335262Y-95392344D01*
X156341338Y-95463080D01*
X156306942Y-95527153D01*
X155543000Y-96291095D01*
X155480688Y-96325121D01*
X155453905Y-96328000D01*
X154041866Y-96328000D01*
X153979684Y-96334755D01*
X153843295Y-96385885D01*
X153745565Y-96459130D01*
X153679059Y-96483978D01*
X153609676Y-96468925D01*
X153594435Y-96459130D01*
X153496705Y-96385885D01*
X153360316Y-96334755D01*
X153298134Y-96328000D01*
X151501866Y-96328000D01*
X151439684Y-96334755D01*
X151303295Y-96385885D01*
X151205565Y-96459130D01*
X151139059Y-96483978D01*
X151069676Y-96468925D01*
X151054435Y-96459130D01*
X150956705Y-96385885D01*
X150820316Y-96334755D01*
X150758134Y-96328000D01*
X148961866Y-96328000D01*
X148899684Y-96334755D01*
X148763295Y-96385885D01*
X148665565Y-96459130D01*
X148599059Y-96483978D01*
X148529676Y-96468925D01*
X148514435Y-96459130D01*
X148416705Y-96385885D01*
X148280316Y-96334755D01*
X148218134Y-96328000D01*
X146421866Y-96328000D01*
X146359684Y-96334755D01*
X146223295Y-96385885D01*
X146178443Y-96419500D01*
X146124565Y-96459879D01*
X146058059Y-96484727D01*
X145988676Y-96469674D01*
X145938446Y-96419500D01*
X145923000Y-96359053D01*
X145923000Y-93988702D01*
X145923002Y-93987932D01*
X145923421Y-93919322D01*
X145923476Y-93910348D01*
X145921010Y-93901719D01*
X145921009Y-93901714D01*
X145915361Y-93881952D01*
X145911783Y-93865191D01*
X145908870Y-93844848D01*
X145908867Y-93844838D01*
X145907595Y-93835955D01*
X145896979Y-93812605D01*
X145890536Y-93795093D01*
X145885954Y-93779063D01*
X145883488Y-93770435D01*
X145867726Y-93745452D01*
X145859596Y-93730386D01*
X145847367Y-93703490D01*
X145830626Y-93684061D01*
X145819521Y-93669053D01*
X145810630Y-93654961D01*
X145805840Y-93647369D01*
X145783703Y-93627818D01*
X145771659Y-93615626D01*
X145758239Y-93600051D01*
X145758237Y-93600050D01*
X145752381Y-93593253D01*
X145744853Y-93588374D01*
X145744850Y-93588371D01*
X145730861Y-93579304D01*
X145715987Y-93568014D01*
X145703502Y-93556988D01*
X145696772Y-93551044D01*
X145688646Y-93547229D01*
X145688645Y-93547228D01*
X145682979Y-93544568D01*
X145670034Y-93538490D01*
X145655065Y-93530176D01*
X145630273Y-93514107D01*
X145605709Y-93506761D01*
X145588264Y-93500099D01*
X145565052Y-93489201D01*
X145535870Y-93484657D01*
X145519151Y-93480874D01*
X145499464Y-93474986D01*
X145499461Y-93474985D01*
X145490859Y-93472413D01*
X145481884Y-93472358D01*
X145481883Y-93472358D01*
X145475190Y-93472317D01*
X145456444Y-93472203D01*
X145455672Y-93472170D01*
X145454577Y-93472000D01*
X145423702Y-93472000D01*
X145422932Y-93471998D01*
X145349284Y-93471548D01*
X145349283Y-93471548D01*
X145345348Y-93471524D01*
X145344004Y-93471908D01*
X145342659Y-93472000D01*
X139064000Y-93472000D01*
X138995879Y-93451998D01*
X138949386Y-93398342D01*
X138938000Y-93346000D01*
X138938000Y-91491822D01*
X138958002Y-91423701D01*
X139011658Y-91377208D01*
X139081932Y-91367104D01*
X139139565Y-91390996D01*
X139231351Y-91459786D01*
X139246946Y-91468324D01*
X139367394Y-91513478D01*
X139382649Y-91517105D01*
X139433514Y-91522631D01*
X139440328Y-91523000D01*
X140062885Y-91523000D01*
X140078124Y-91518525D01*
X140079329Y-91517135D01*
X140081000Y-91509452D01*
X140081000Y-91504884D01*
X140589000Y-91504884D01*
X140593475Y-91520123D01*
X140594865Y-91521328D01*
X140602548Y-91522999D01*
X141229669Y-91522999D01*
X141236490Y-91522629D01*
X141287352Y-91517105D01*
X141302604Y-91513479D01*
X141423054Y-91468324D01*
X141438649Y-91459786D01*
X141540724Y-91383285D01*
X141553285Y-91370724D01*
X141629786Y-91268649D01*
X141638324Y-91253054D01*
X141683478Y-91132606D01*
X141687105Y-91117351D01*
X141692631Y-91066486D01*
X141693000Y-91059672D01*
X141693000Y-90437115D01*
X141688525Y-90421876D01*
X141687135Y-90420671D01*
X141679452Y-90419000D01*
X140607115Y-90419000D01*
X140591876Y-90423475D01*
X140590671Y-90424865D01*
X140589000Y-90432548D01*
X140589000Y-91504884D01*
X140081000Y-91504884D01*
X140081000Y-90037000D01*
X140101002Y-89968879D01*
X140154658Y-89922386D01*
X140207000Y-89911000D01*
X141674884Y-89911000D01*
X141690123Y-89906525D01*
X141691328Y-89905135D01*
X141692999Y-89897452D01*
X141692999Y-89270331D01*
X141692629Y-89263510D01*
X141687105Y-89212648D01*
X141683479Y-89197396D01*
X141638324Y-89076946D01*
X141629786Y-89061351D01*
X141553285Y-88959276D01*
X141540724Y-88946715D01*
X141438649Y-88870214D01*
X141423054Y-88861676D01*
X141312813Y-88820348D01*
X141256049Y-88777706D01*
X141231349Y-88711145D01*
X141246557Y-88641796D01*
X141268104Y-88613115D01*
X141369430Y-88512144D01*
X141369440Y-88512132D01*
X141373096Y-88508489D01*
X141503453Y-88327077D01*
X141602430Y-88126811D01*
X141667370Y-87913069D01*
X141696529Y-87691590D01*
X141696804Y-87680345D01*
X141698074Y-87628365D01*
X141698074Y-87628361D01*
X141698156Y-87625000D01*
X141679852Y-87402361D01*
X141625431Y-87185702D01*
X141536354Y-86980840D01*
X141415014Y-86793277D01*
X141264670Y-86628051D01*
X141260619Y-86624852D01*
X141260615Y-86624848D01*
X141093414Y-86492800D01*
X141093410Y-86492798D01*
X141089359Y-86489598D01*
X141048053Y-86466796D01*
X140998084Y-86416364D01*
X140983312Y-86346921D01*
X141008428Y-86280516D01*
X141035780Y-86253909D01*
X141096845Y-86210352D01*
X141214860Y-86126173D01*
X141373096Y-85968489D01*
X141503453Y-85787077D01*
X141602430Y-85586811D01*
X141667370Y-85373069D01*
X141696529Y-85151590D01*
X141698156Y-85085000D01*
X141679852Y-84862361D01*
X141625431Y-84645702D01*
X141536354Y-84440840D01*
X141449329Y-84306320D01*
X141417822Y-84257617D01*
X141417820Y-84257614D01*
X141415014Y-84253277D01*
X141264670Y-84088051D01*
X141260619Y-84084852D01*
X141260615Y-84084848D01*
X141093414Y-83952800D01*
X141093410Y-83952798D01*
X141089359Y-83949598D01*
X141048053Y-83926796D01*
X140998084Y-83876364D01*
X140983312Y-83806921D01*
X141008428Y-83740516D01*
X141035780Y-83713909D01*
X141079603Y-83682650D01*
X141214860Y-83586173D01*
X141259125Y-83542063D01*
X141369435Y-83432137D01*
X141373096Y-83428489D01*
X141503453Y-83247077D01*
X141543278Y-83166498D01*
X141600136Y-83051453D01*
X141600137Y-83051451D01*
X141602430Y-83046811D01*
X141667370Y-82833069D01*
X141696529Y-82611590D01*
X141696611Y-82608240D01*
X141698074Y-82548365D01*
X141698074Y-82548361D01*
X141698156Y-82545000D01*
X141679852Y-82322361D01*
X141625431Y-82105702D01*
X141536354Y-81900840D01*
X141430839Y-81737738D01*
X141417822Y-81717617D01*
X141417820Y-81717614D01*
X141415014Y-81713277D01*
X141264670Y-81548051D01*
X141260619Y-81544852D01*
X141260615Y-81544848D01*
X141093414Y-81412800D01*
X141093410Y-81412798D01*
X141089359Y-81409598D01*
X141048053Y-81386796D01*
X140998084Y-81336364D01*
X140983312Y-81266921D01*
X141008428Y-81200516D01*
X141035780Y-81173909D01*
X141079603Y-81142650D01*
X141214860Y-81046173D01*
X141268590Y-80992631D01*
X141307205Y-80954150D01*
X141373096Y-80888489D01*
X141398393Y-80853285D01*
X141500435Y-80711277D01*
X141503453Y-80707077D01*
X141555087Y-80602604D01*
X141591133Y-80529669D01*
X145652001Y-80529669D01*
X145652371Y-80536490D01*
X145657895Y-80587352D01*
X145661521Y-80602604D01*
X145706676Y-80723054D01*
X145715214Y-80738649D01*
X145791715Y-80840724D01*
X145804276Y-80853285D01*
X145906351Y-80929786D01*
X145921946Y-80938324D01*
X146042394Y-80983478D01*
X146057649Y-80987105D01*
X146108514Y-80992631D01*
X146115328Y-80993000D01*
X146412885Y-80993000D01*
X146428124Y-80988525D01*
X146429329Y-80987135D01*
X146431000Y-80979452D01*
X146431000Y-80007115D01*
X146426525Y-79991876D01*
X146425135Y-79990671D01*
X146417452Y-79989000D01*
X145670116Y-79989000D01*
X145654877Y-79993475D01*
X145653672Y-79994865D01*
X145652001Y-80002548D01*
X145652001Y-80529669D01*
X141591133Y-80529669D01*
X141600136Y-80511453D01*
X141600137Y-80511451D01*
X141602430Y-80506811D01*
X141648695Y-80354536D01*
X141665865Y-80298023D01*
X141665865Y-80298021D01*
X141667370Y-80293069D01*
X141696529Y-80071590D01*
X141697920Y-80014659D01*
X141698074Y-80008365D01*
X141698074Y-80008361D01*
X141698156Y-80005000D01*
X141679852Y-79782361D01*
X141625431Y-79565702D01*
X141580725Y-79462885D01*
X145652000Y-79462885D01*
X145656475Y-79478124D01*
X145657865Y-79479329D01*
X145665548Y-79481000D01*
X146412885Y-79481000D01*
X146428124Y-79476525D01*
X146429329Y-79475135D01*
X146431000Y-79467452D01*
X146431000Y-78495116D01*
X146426525Y-78479877D01*
X146425135Y-78478672D01*
X146417452Y-78477001D01*
X146115331Y-78477001D01*
X146108510Y-78477371D01*
X146057648Y-78482895D01*
X146042396Y-78486521D01*
X145921946Y-78531676D01*
X145906351Y-78540214D01*
X145804276Y-78616715D01*
X145791715Y-78629276D01*
X145715214Y-78731351D01*
X145706676Y-78746946D01*
X145661522Y-78867394D01*
X145657895Y-78882649D01*
X145652369Y-78933514D01*
X145652000Y-78940328D01*
X145652000Y-79462885D01*
X141580725Y-79462885D01*
X141536354Y-79360840D01*
X141415014Y-79173277D01*
X141264670Y-79008051D01*
X141260619Y-79004852D01*
X141260615Y-79004848D01*
X141093414Y-78872800D01*
X141093410Y-78872798D01*
X141089359Y-78869598D01*
X140893789Y-78761638D01*
X140888920Y-78759914D01*
X140888916Y-78759912D01*
X140688087Y-78688795D01*
X140688083Y-78688794D01*
X140683212Y-78687069D01*
X140678119Y-78686162D01*
X140678116Y-78686161D01*
X140468373Y-78648800D01*
X140468367Y-78648799D01*
X140463284Y-78647894D01*
X140389452Y-78646992D01*
X140245081Y-78645228D01*
X140245079Y-78645228D01*
X140239911Y-78645165D01*
X140019091Y-78678955D01*
X139806756Y-78748357D01*
X139608607Y-78851507D01*
X139604474Y-78854610D01*
X139604471Y-78854612D01*
X139434100Y-78982530D01*
X139429965Y-78985635D01*
X139426393Y-78989373D01*
X139312248Y-79108819D01*
X139275629Y-79147138D01*
X139272715Y-79151410D01*
X139272714Y-79151411D01*
X139168088Y-79304787D01*
X139113177Y-79349790D01*
X139042652Y-79357961D01*
X138978905Y-79326707D01*
X138942175Y-79265950D01*
X138938000Y-79233783D01*
X138938000Y-76834000D01*
X138958002Y-76765879D01*
X139011658Y-76719386D01*
X139064000Y-76708000D01*
X161291000Y-76708000D01*
X161359121Y-76728002D01*
G37*
%TD.AperFunction*%
%TD*%
M02*
