M48
; DRILL file {KiCad (6.0.1)} date Mon Feb  7 09:31:44 2022
; FORMAT={-:-/ absolute / inch / decimal}
; #@! TF.CreationDate,2022-02-07T09:31:44-05:00
; #@! TF.GenerationSoftware,Kicad,Pcbnew,(6.0.1)
; #@! TF.FileFunction,Plated,1,2,PTH
FMAT,2
INCH
; #@! TA.AperFunction,Plated,PTH,ViaDrill
T1C0.0157
; #@! TA.AperFunction,Plated,PTH,ComponentDrill
T2C0.0276
; #@! TA.AperFunction,Plated,PTH,ComponentDrill
T3C0.0295
; #@! TA.AperFunction,Plated,PTH,ComponentDrill
T4C0.0394
%
G90
G05
T1
X5.8Y-3.725
X5.821Y-3.4178
X5.85Y-3.5
X5.925Y-3.25
X5.975Y-3.3
X6.175Y-3.725
X6.275Y-3.725
T2
X5.785Y-3.265
X6.085Y-3.265
T3
X5.775Y-3.1392
X5.825Y-3.1392
X5.875Y-3.1392
T4
X5.525Y-3.1498
X5.525Y-3.2498
X5.525Y-3.3498
X5.525Y-3.4498
X5.525Y-3.5498
X5.8Y-3.8459
X5.9Y-3.8459
X6.0Y-3.8459
X6.1Y-3.8459
X6.2Y-3.8459
X6.3Y-3.8459
T0
M30
